<?xml version="1.0" encoding="UTF-8"?><svg id="b" xmlns="http://www.w3.org/2000/svg" viewBox="0 0 32 32"><defs><style>.h,.i,.j,.k{stroke-width:0px;}.h,.k{fill:#d8dcdb;}.i,.l{fill:#ff0085;}.l{stroke:#d8dcdb;stroke-linejoin:round;stroke-width:2px;}.j{fill:#52bbd1;}.k{fill-rule:evenodd;}</style></defs><path id="c" class="i" d="M13.98,2.02C7.38,2.02,2.02,7.43,2.02,14.11s5.36,12.09,11.97,12.09,11.97-5.42,11.97-12.09S20.59,2.02,13.98,2.02Z"/><path class="k" d="M13.98,0C6.27,0,0,6.31,0,14.11s6.27,14.11,13.98,14.11,13.98-6.31,13.98-14.11S21.69,0,13.98,0ZM13.98,2.02C7.38,2.02,2.02,7.43,2.02,14.11s5.36,12.09,11.97,12.09,11.97-5.42,11.97-12.09S20.59,2.02,13.98,2.02Z"/><path id="d" class="j" d="M13.98,21.64c-4.62,0-8.39-3.8-8.39-8.48,0-.31.02-.61.05-.91,2.47-1.11,4.44-3.16,5.46-5.69,1.9,2.71,5.02,4.48,8.56,4.48.82,0,1.6-.1,2.36-.28.22.75.35,1.56.35,2.39,0,4.67-3.76,8.48-8.39,8.48Z"/><path class="k" d="M13.98,23.66c5.73,0,10.4-4.7,10.4-10.49,0-1.03-.15-2.03-.43-2.96-.3-1.03-1.36-1.64-2.4-1.39-.61.14-1.24.22-1.89.22-2.85,0-5.37-1.43-6.9-3.62-.42-.61-1.14-.93-1.88-.85-.73.08-1.36.56-1.64,1.24-.83,2.05-2.42,3.71-4.42,4.61-.65.29-1.1.91-1.18,1.63-.04.37-.06.74-.06,1.12,0,5.79,4.67,10.49,10.4,10.49ZM13.98,21.64c-4.62,0-8.39-3.8-8.39-8.48,0-.31.02-.61.05-.91,2.47-1.11,4.44-3.16,5.46-5.69,1.9,2.71,5.02,4.48,8.56,4.48.82,0,1.6-.1,2.36-.28.22.75.35,1.56.35,2.39,0,4.67-3.76,8.48-8.39,8.48Z"/><path id="e" class="h" d="M18.24,11.78c-1.34,0-2.42,1.1-2.42,2.45s1.09,2.45,2.42,2.45,2.42-1.1,2.42-2.45-1.09-2.45-2.42-2.45Z"/><path id="f" class="h" d="M9.91,11.78c-1.34,0-2.42,1.1-2.42,2.45s1.09,2.45,2.42,2.45,2.42-1.1,2.42-2.45-1.09-2.45-2.42-2.45Z"/><path id="g" class="l" d="M28.82,19c1.2,0,2.18.98,2.18,2.18v7.63c0,1.2-.98,2.18-2.18,2.18h-11.63c-1.2,0-2.18-.98-2.18-2.18v-7.63c0-1.2.98-2.18,2.18-2.18h1.82l.4-1.01c.22-.54.88-.99,1.46-.99h4.27c.59,0,1.25.45,1.46.99l.4,1.01h1.82Z"/><circle class="l" cx="22.81" cy="24.92" r="3.03"/></svg>