<?xml version="1.0" encoding="UTF-8"?><svg id="b" xmlns="http://www.w3.org/2000/svg" viewBox="0 0 32 32"><defs><style>.f,.g,.h,.i{stroke-width:0px;}.f,.i{fill:#d8dcdb;}.g{fill:#ff0085;}.h{fill:#52bbd1;}.i{fill-rule:evenodd;}</style></defs><path id="c" class="f" d="M26.85,2.1H5.17c-1.7,0-3.1,1.39-3.1,3.1v21.68c0,1.7,1.39,3.1,3.1,3.1h21.68c1.7,0,3.1-1.39,3.1-3.1V5.2c0-1.7-1.39-3.1-3.1-3.1Z"/><path id="d" class="g" d="M14.71,11.42h3.18v3.13h-3.18v-3.13ZM11.53,14.55h3.18v3.13h-3.18v-3.13ZM17.89,14.55h3.18v3.13h-3.18v-3.13ZM21.07,11.42h3.18v3.13h-3.18v-3.13ZM8.35,11.42h3.18v3.13h-3.18v-3.13ZM27.43,2.03H5.17c-1.75,0-3.18,1.41-3.18,3.13v21.91c0,1.72,1.43,3.13,3.18,3.13h22.26c1.75,0,3.18-1.41,3.18-3.13V5.16c0-1.72-1.43-3.13-3.18-3.13ZM11.53,25.5h-3.18v-3.13h3.18v3.13ZM17.89,25.5h-3.18v-3.13h3.18v3.13ZM24.25,25.5h-3.18v-3.13h3.18v3.13ZM27.43,14.55h-3.18v3.13h3.18v3.13h-3.18v-3.13h-3.18v3.13h-3.18v-3.13h-3.18v3.13h-3.18v-3.13h-3.18v3.13h-3.18v-3.13h3.18v-3.13h-3.18V5.16h22.26v9.39Z"/><path class="i" d="M26.85.03H5.17C2.33.03,0,2.35,0,5.2v21.68C0,29.72,2.33,32.04,5.17,32.04h21.68c2.84,0,5.17-2.33,5.17-5.17V5.2C32.02,2.35,29.69.03,26.85.03ZM26.85,2.1H5.17c-1.7,0-3.1,1.39-3.1,3.1v21.68c0,1.7,1.39,3.1,3.1,3.1h21.68c1.7,0,3.1-1.39,3.1-3.1V5.2c0-1.7-1.39-3.1-3.1-3.1Z"/><path id="e" class="g" d="M26.9,2.03H5.08c-1.7,0-3.1,1.39-3.1,3.1v21.82c0,1.7,1.39,3.1,3.1,3.1h21.82c1.7,0,3.1-1.39,3.1-3.1V5.13c0-1.7-1.39-3.1-3.1-3.1ZM27,27.04H4.99V5.03h22.01v22.01Z"/><path class="i" d="M30.25,2.45c0-.14-.11-.25-.25-.25H1.64c-.14,0-.25.11-.25.25v26.33c0,.14.11.25.25.25h28.36c.14,0,.25-.11.25-.25V2.45ZM29.99,2.45H1.64v26.33h28.36V2.45Z"/><path class="h" d="M8.37,28.23l-2-2.74,1.82-2.5c.14-.17.22-.4.22-.65,0-.47-.36-.83-.9-.83-.31,0-.59.13-.77.4l-1.44,2.05-1.42-2.05c-.2-.28-.47-.4-.78-.4-.54,0-.9.36-.9.83,0,.24.09.47.22.65l1.82,2.5-1.99,2.74c-.14.17-.22.41-.22.65,0,.48.36.83.9.83.31,0,.58-.13.77-.39l1.6-2.32,1.61,2.32c.2.26.46.39.78.39.53,0,.89-.35.89-.83,0-.23-.08-.47-.21-.65Z"/><path class="i" d="M5.31,20.46c-.59-.66-1.36-.97-2.21-.97-1.81,0-2.92,1.28-2.92,2.86,0,.69.25,1.35.61,1.84,0,0,.95,1.3.95,1.3l-1.11,1.53C.24,27.52,0,28.21,0,28.88,0,30.49,1.11,31.73,2.92,31.73c.96,0,1.77-.38,2.38-1.18.6.8,1.41,1.18,2.39,1.18,1.78,0,2.91-1.23,2.91-2.86,0-.66-.24-1.35-.6-1.84h0s-1.13-1.55-1.13-1.55l.93-1.28c.39-.5.63-1.16.63-1.86,0-1.58-1.11-2.86-2.92-2.86-.86,0-1.63.32-2.2.97ZM8.37,28.23l-2-2.74,1.82-2.5c.14-.17.22-.4.22-.65,0-.47-.36-.83-.9-.83-.31,0-.59.13-.77.4l-1.44,2.05-1.42-2.05c-.2-.28-.47-.4-.78-.4-.54,0-.9.36-.9.83,0,.24.09.47.22.65l1.82,2.5-1.99,2.74c-.14.17-.22.41-.22.65,0,.48.36.83.9.83.31,0,.58-.13.77-.39l1.6-2.32,1.61,2.32c.2.26.46.39.78.39.53,0,.89-.35.89-.83,0-.23-.08-.47-.21-.65Z"/><path class="h" d="M18.68,21.5c-.28,0-.52.13-.68.35l-1.74,2.65-1.74-2.65c-.17-.22-.4-.35-.69-.35-.47,0-.86.39-.86.86,0,.18.05.33.14.47l2.22,3.26v2.71c0,.51.44.9.93.9s.93-.39.93-.9v-2.71l2.22-3.26c.09-.14.14-.29.14-.47,0-.47-.39-.86-.88-.86Z"/><path class="i" d="M18.68,19.48c-.94,0-1.76.43-2.31,1.17-.02.03-.04.06-.06.09l-.05.07-.05-.07s-.07-.1-.1-.14c-.57-.72-1.33-1.12-2.28-1.12-1.58,0-2.89,1.31-2.89,2.89,0,.62.17,1.13.48,1.6,0,0,0,.01.01.02l1.87,2.74v2.08c0,1.63,1.37,2.92,2.96,2.92s2.96-1.3,2.96-2.92v-2.08l1.87-2.74s0-.01.01-.02c.31-.47.48-.97.48-1.6,0-1.57-1.29-2.89-2.9-2.89ZM18.68,21.5c-.28,0-.52.13-.68.35l-1.74,2.65-1.74-2.65c-.17-.22-.4-.35-.69-.35-.47,0-.86.39-.86.86,0,.18.05.33.14.47l2.22,3.26v2.71c0,.51.44.9.93.9s.93-.39.93-.9v-2.71l2.22-3.26c.09-.14.14-.29.14-.47,0-.47-.39-.86-.88-.86Z"/><path class="h" d="M28.45,21.55h-3.47c-.45,0-.84.37-.84.84s.39.83.84.83h2.88l-3.69,4.38c-.7.9-.02,2.01,1.11,2.01h3.77c.45,0,.83-.37.83-.83s-.38-.84-.83-.84h-3.19l3.69-4.38c.7-.9.02-2.01-1.09-2.01Z"/><path class="i" d="M23.75,24.96l-1.12,1.33s-.03.04-.05.06c-.94,1.2-.89,2.55-.3,3.6.55.96,1.62,1.69,3,1.69h3.77c1.55,0,2.86-1.27,2.86-2.85,0-1.25-.78-2.28-1.85-2.68l1.04-1.23s.03-.04.05-.06c.94-1.2.89-2.55.3-3.59-.54-.96-1.62-1.7-2.99-1.7h-3.47c-1.53,0-2.87,1.26-2.87,2.87,0,1.13.68,2.11,1.63,2.57ZM28.45,21.55h-3.47c-.45,0-.84.37-.84.84s.39.83.84.83h2.88l-3.69,4.38c-.7.9-.02,2.01,1.11,2.01h3.77c.45,0,.83-.37.83-.83s-.38-.84-.83-.84h-3.19l3.69-4.38c.7-.9.02-2.01-1.09-2.01Z"/></svg>