<?xml version="1.0" encoding="UTF-8"?><svg id="b" xmlns="http://www.w3.org/2000/svg" viewBox="0 0 32 32"><defs><style>.m{fill:#d8dcdb;stroke-width:0px;}.n{fill:#ff0085;stroke:#d8dcdb;stroke-linejoin:round;stroke-width:2px;}</style></defs><path id="c" class="n" d="M1.64,9.83l20.54,20.53c.87.87,2.31.84,3.21-.06l4.9-4.9c.9-.9.93-2.35.06-3.21L9.81,1.66c-.87-.87-2.32-.84-3.21.05L1.7,6.61c-.9.9-.92,2.35-.05,3.22Z"/><path id="d" class="m" d="M23.87,25.06l1.13,1.13-2.92,2.92-1.13-1.13,2.92-2.92Z"/><path id="e" class="m" d="M23.95,20.47l1.13,1.13-5.25,5.25-1.13-1.13,5.25-5.25Z"/><path id="f" class="m" d="M19.36,20.54l1.13,1.13-2.92,2.92-1.13-1.13,2.92-2.92Z"/><path id="g" class="m" d="M17.1,18.29l1.13,1.13-2.92,2.92-1.13-1.13,2.92-2.92Z"/><path id="h" class="m" d="M17.18,13.7l1.13,1.13-5.25,5.25-1.13-1.13,5.25-5.25Z"/><path id="i" class="m" d="M12.59,13.78l1.13,1.13-2.92,2.92-1.13-1.13,2.92-2.92Z"/><path id="j" class="m" d="M10.33,11.52l1.13,1.13-2.92,2.92-1.13-1.13,2.92-2.92Z"/><path id="k" class="m" d="M10.41,6.93l1.13,1.13-5.25,5.25-1.13-1.13,5.25-5.25Z"/><path id="l" class="m" d="M5.82,7.01l1.13,1.13-2.92,2.92-1.13-1.13,2.92-2.92Z"/></svg>