<?xml version="1.0" encoding="UTF-8"?><svg id="b" xmlns="http://www.w3.org/2000/svg" viewBox="0 0 32 32"><defs><style>.c,.d,.e,.f,.g,.h{stroke-width:0px;}.c,.i,.h{fill:#d8dcdb;}.d,.f{fill:#ff0085;}.f,.h{fill-rule:evenodd;}.g{fill:#52bbd1;}.i{stroke:#d8dcdb;stroke-miterlimit:10;stroke-width:2px;}</style></defs><path class="g" d="M15.88,29.49c-7.4,0-13.42-6.02-13.42-13.42S8.48,2.64,15.88,2.64s13.42,6.02,13.42,13.42-6.02,13.42-13.42,13.42Z"/><path class="c" d="M15.88,3.64c6.85,0,12.42,5.57,12.42,12.42s-5.57,12.42-12.42,12.42S3.46,22.91,3.46,16.06,9.03,3.64,15.88,3.64M15.88,1.64C7.93,1.64,1.46,8.11,1.46,16.06s6.47,14.42,14.42,14.42,14.42-6.47,14.42-14.42S23.83,1.64,15.88,1.64h0Z"/><path class="h" d="M24.59,16.06c0-4.71-3.87-8.58-8.58-8.58s-8.58,3.87-8.58,8.58,3.87,8.58,8.58,8.58,8.58-3.88,8.58-8.58"/><circle class="c" cx="16.01" cy="16.06" r="10.49"/><circle class="c" cx="16.01" cy="16.06" r="6.67"/><path class="f" d="M16.01,16.06V7.48c-4.71,0-8.58,3.87-8.58,8.58h8.58"/><path class="f" d="M16.01,16.06v8.58c4.71,0,8.58-3.88,8.58-8.58h-8.58"/><path class="e" d="M24.73,16.19H7.3c-.08,0-.14-.06-.14-.14s.06-.14.14-.14h17.43c.08,0,.14.06.14.14s-.06.14-.14.14Z"/><path class="e" d="M16.01,24.91c-.08,0-.14-.06-.14-.14V7.34c0-.08.06-.14.14-.14s.14.06.14.14v17.43c0,.08-.06.14-.14.14Z"/><path class="i" d="M27.65,29.79c-.77,0-1.54-.29-2.12-.88L2.96,6.34c-1.17-1.17-1.17-3.07,0-4.24,1.17-1.17,3.07-1.17,4.24,0l22.57,22.57c1.17,1.17,1.17,3.07,0,4.24-.59.59-1.35.88-2.12.88Z"/><path class="d" d="M24.87,18.4h2.93c.96,0,1.74-.78,1.74-1.74s-.78-1.74-1.74-1.74h-6.31l3.38,3.47Z"/><path class="d" d="M17.19,10.65v-6.33c0-.96-.78-1.74-1.74-1.74s-1.74.78-1.74,1.74v2.89l3.47,3.44Z"/><path class="d" d="M28.02,24.97h0L6.55,3.5h0l-.31-.31c-.59-.59-1.54-.59-2.12,0s-.59,1.54,0,2.12l9.61,9.61h0s-10.61.01-10.61.01c-.96,0-1.74.78-1.74,1.74s.78,1.74,1.74,1.74h10.61v10.61c0,.96.78,1.74,1.74,1.74s1.74-.78,1.74-1.74v-10.61h.01l9.48,9.48c.29.29.68.44,1.06.44s.77-.15,1.06-.44c.59-.59.59-1.54,0-2.12l-.78-.78Z"/><line class="c" x1="30.1" y1="23.56" x2="8.89" y2="2.36"/></svg>