<?xml version="1.0" encoding="UTF-8"?><svg id="b" xmlns="http://www.w3.org/2000/svg" viewBox="0 0 32 32"><defs><style>.c{fill:#d8dcdb;}.c,.d,.e{stroke-width:0px;}.f{fill:#ff0085;stroke:#d8dcdb;stroke-miterlimit:10;stroke-width:2px;}.d{fill:#52bbd2;}.e{fill:#52bbd1;}</style></defs><path class="f" d="M30.96,15.98c0,8.26-6.69,14.95-14.95,14.95S1.07,24.24,1.07,15.98,7.76,1.03,16.02,1.03s14.95,6.69,14.95,14.95h0Z"/><polygon class="d" points="14.14 9.49 11.32 6.56 11.32 9.49 14.14 9.49 14.14 9.49"/><polygon class="d" points="14.14 9.5 14.14 13.13 7.39 13.13 10.02 16.06 15.83 16.06 15.83 11.26 14.14 9.5 14.14 9.5"/><polygon class="c" points="14.14 9.49 14.14 9.49 14.14 9.5 14.14 9.49 14.14 9.49"/><polygon class="c" points="14.14 9.49 11.32 9.49 11.32 6.56 7.39 6.56 7.39 13.13 14.14 13.13 14.14 9.5 14.14 9.49 14.14 9.49"/><polygon class="d" points="18.33 13.13 20.71 6.56 16.2 11.26 16.2 16.06 22.01 16.06 24.64 13.13 18.33 13.13 18.33 13.13"/><polygon class="c" points="22.67 6.56 20.71 6.56 18.33 13.13 24.64 13.13 22.67 6.56 22.67 6.56"/><polygon class="e" points="18.28 23.3 18.28 19.37 24.61 19.37 24.64 19.34 22.01 16.42 16.2 16.42 16.2 21.21 20.21 25.4 20.21 23.3 18.28 23.3 18.28 23.3"/><polygon class="c" points="24.64 19.37 18.28 19.37 18.28 23.3 20.21 23.3 20.21 25.4 22.7 25.4 22.7 23.3 24.64 23.3 24.64 19.37 24.64 19.37"/><path class="c" d="M9.45,17.9v-1.25c0-.12-.09-.22-.21-.22s-.22.1-.22.22v1.39c0,.14.1.24.24.24h.79c.1,0,.19-.08.19-.19s-.09-.19-.19-.19h-.6Z"/><path class="c" d="M12.11,17.97l-.62-1.38c-.05-.11-.12-.16-.21-.16s-.16.05-.21.16l-.62,1.38s-.03.08-.03.13c0,.11.09.19.21.19.09,0,.17-.06.21-.14l.1-.24h.68l.1.24c.03.08.11.14.21.14.12,0,.21-.09.21-.19,0-.04-.01-.09-.03-.13h0ZM11.09,17.58l.2-.47.2.47h-.39Z"/><path class="c" d="M13.73,16.43c-.12,0-.22.1-.22.22v.85l-.69-.95c-.05-.08-.13-.13-.22-.13-.12,0-.21.07-.21.21v1.44c0,.12.1.22.22.22s.22-.1.22-.22v-.86l.69.95c.05.07.13.13.22.13.12,0,.2-.07.2-.21v-1.43c0-.12-.1-.22-.22-.22h0Z"/><path class="c" d="M14.89,16.44h-.38c-.14,0-.24.1-.24.24v1.36c0,.14.1.24.24.24h.38c.5,0,.95-.32.95-.93s-.45-.91-.95-.91h0ZM14.89,17.92h-.19v-1.11h.19c.33,0,.52.16.52.54,0,.41-.19.57-.52.57h0Z"/><path class="c" d="M10.53,20.6l-.62-1.38c-.05-.11-.12-.16-.21-.16s-.16.05-.21.16l-.62,1.38s-.03.08-.03.13c0,.11.09.19.21.19.09,0,.17-.06.21-.14l.1-.24h.68l.1.24c.03.08.11.14.21.14.12,0,.21-.09.21-.19,0-.04-.01-.09-.03-.13h0ZM9.5,20.2l.2-.47.2.47h-.39Z"/><path class="c" d="M12.18,20.58l-.31-.37c.21-.1.34-.3.34-.53,0-.33-.27-.61-.68-.61h-.48c-.14,0-.24.1-.24.24v1.41c0,.12.1.22.22.22s.21-.1.21-.22v-.43h.2l.44.56s.09.08.16.08c.11,0,.2-.09.2-.2,0-.05-.03-.09-.05-.13h0ZM11.24,19.44h.27c.15,0,.28.04.28.24s-.13.23-.28.23h-.27v-.48h0Z"/><path class="c" d="M13.78,20.39c-.08,0-.14.04-.16.06-.02,0-.1.08-.23.08-.28,0-.49-.24-.49-.53s.22-.53.48-.53c.14,0,.22.07.24.08.03.02.08.06.16.06.1,0,.2-.07.2-.19,0-.11-.08-.18-.19-.25-.1-.05-.24-.09-.42-.09-.45,0-.93.38-.93.94s.47.94.94.94c.17,0,.3-.04.4-.09.12-.07.2-.14.2-.25,0-.13-.1-.19-.2-.19h0Z"/><path class="c" d="M15.36,19.28v.54h-.7v-.54c0-.12-.09-.22-.21-.22s-.22.1-.22.22v1.42c0,.12.1.22.22.22s.21-.1.21-.22v-.52h.7v.52c0,.12.09.22.22.22s.22-.1.22-.22v-1.42c0-.12-.1-.22-.22-.22s-.22.1-.22.22h0Z"/><path class="c" d="M8.67,21.7h-1.08c-.1,0-.19.08-.19.19s.09.19.19.19h.32v1.25c0,.12.1.23.22.23s.21-.1.21-.23v-1.25h.33c.1,0,.19-.08.19-.19s-.09-.19-.19-.19h0Z"/><path class="c" d="M9.83,21.68c-.46,0-.92.38-.92.94s.45.94.92.94.92-.38.92-.94-.45-.94-.92-.94h0ZM9.83,22.09c.26,0,.46.21.46.53s-.21.53-.46.53-.47-.21-.47-.53.21-.53.47-.53h0Z"/><path class="c" d="M11.92,21.68c-.46,0-.92.38-.92.94s.45.94.92.94.92-.38.92-.94-.45-.94-.92-.94h0ZM11.92,22.09c.26,0,.46.21.46.53s-.21.53-.46.53-.47-.21-.47-.53.21-.53.47-.53h0Z"/><path class="c" d="M13.56,23.16v-1.25c0-.12-.09-.22-.21-.22s-.22.1-.22.22v1.39c0,.14.1.24.24.24h.79c.1,0,.19-.08.19-.19s-.09-.19-.19-.19h-.6Z"/><path class="c" d="M15.19,21.68c-.34,0-.61.2-.61.53,0,.28.21.41.48.52l.08.03c.2.08.25.14.25.24,0,.15-.15.18-.24.18-.06,0-.16-.01-.25-.11-.05-.06-.11-.12-.2-.12-.12,0-.18.09-.18.18,0,.1.06.18.09.22.14.14.34.21.54.21.31,0,.69-.18.69-.56,0-.24-.14-.41-.59-.58l-.07-.03c-.14-.05-.16-.13-.16-.18,0-.09.07-.16.2-.16.08,0,.12.02.19.07.04.04.11.08.17.08.1,0,.18-.07.18-.17,0-.07-.03-.12-.1-.19-.11-.1-.24-.17-.46-.17h0Z"/></svg>