<?xml version="1.0" encoding="UTF-8"?><svg id="b" xmlns="http://www.w3.org/2000/svg" viewBox="0 0 32 32"><defs><style>.c,.d,.e,.f{stroke-width:0px;}.c,.f{fill:#d8dcdb;}.d{fill:#ff0085;}.d,.f{fill-rule:evenodd;}.e{fill:#52bbd1;}</style></defs><path class="f" d="M2.98,14.38s-.07.05-.1.07l-2.1,1.64c-.49.38-.77.96-.77,1.58s.28,1.2.77,1.58l11.68,9.09c.72.56,1.73.56,2.45,0l11.68-9.09c.49-.38.77-.96.77-1.58,0-.62-.28-1.2-.77-1.58l-2.12-1.65s-.06-.05-.09-.07l.08-.06,2.13-1.65c.49-.38.77-.96.77-1.58,0-.62-.28-1.2-.77-1.58L14.91.42c-.72-.56-1.73-.56-2.45,0L.77,9.51C.28,9.88,0,10.47,0,11.08c0,.62.28,1.2.77,1.58l2.12,1.65.09.07Z"/><polygon class="d" points="13.67 23.47 4.1 16.03 2 17.66 13.68 26.75 25.36 17.66 23.25 16.02 13.67 23.47"/><polygon class="d" points="13.68 20.17 23.23 12.73 25.36 11.08 13.68 2 2 11.08 4.11 12.73 13.68 20.17"/><path class="f" d="M2.98,14.38s-.07.05-.1.07l-2.1,1.64c-.49.38-.77.96-.77,1.58s.28,1.2.77,1.58l11.68,9.09c.72.56,1.73.56,2.45,0l11.68-9.09c.49-.38.77-.96.77-1.58,0-.62-.28-1.2-.77-1.58l-2.12-1.65s-.06-.05-.09-.07l.08-.06,2.13-1.65c.49-.38.77-.96.77-1.58,0-.62-.28-1.2-.77-1.58L14.91.42c-.72-.56-1.73-.56-2.45,0L.77,9.51C.28,9.88,0,10.47,0,11.08c0,.62.28,1.2.77,1.58l2.12,1.65.09.07Z"/><polygon class="d" points="13.67 23.47 4.1 16.03 2 17.66 13.68 26.75 25.36 17.66 23.25 16.02 13.67 23.47"/><polygon class="d" points="13.68 20.17 23.23 12.73 25.36 11.08 13.68 2 2 11.08 4.11 12.73 13.68 20.17"/><rect class="c" x="18.63" y="13.21" width="8.23" height="15.56"/><path class="e" d="M18.08,30.99c-2.04,0-3.7-1.66-3.7-3.7v-6.3c0-1.69,1.14-3.13,2.7-3.56v-.94c0-3.03,2.47-5.5,5.5-5.5s5.5,2.47,5.5,5.5v.94c1.56.44,2.7,1.87,2.7,3.56v6.3c0,2.04-1.66,3.7-3.7,3.7h-9ZM26.98,27.19v-6.1h-8.8v6.1h8.8ZM24.28,17.29v-.8c0-.94-.76-1.7-1.7-1.7s-1.7.76-1.7,1.7v.8h3.4Z"/><path class="c" d="M22.58,11.99c2.49,0,4.5,2.01,4.5,4.5v1.8c1.49,0,2.7,1.21,2.7,2.7v6.3c0,1.49-1.21,2.7-2.7,2.7h-9c-1.49,0-2.7-1.21-2.7-2.7v-6.3c0-1.49,1.21-2.7,2.7-2.7v-1.8c0-2.49,2.01-4.5,4.5-4.5M19.88,18.29h5.4v-1.8c0-1.49-1.21-2.7-2.7-2.7s-2.7,1.21-2.7,2.7v1.8M18.08,28.19h9c.5,0,.9-.4.9-.9v-6.3c0-.5-.4-.9-.9-.9h-9c-.5,0-.9.4-.9.9v6.3c0,.5.4.9.9.9M22.58,9.99c-3.58,0-6.5,2.92-6.5,6.5v.25c-1.59.75-2.7,2.38-2.7,4.25v6.3c0,2.59,2.11,4.7,4.7,4.7h9c2.59,0,4.7-2.11,4.7-4.7v-6.3c0-1.88-1.11-3.5-2.7-4.25v-.25c0-3.58-2.92-6.5-6.5-6.5h0ZM21.91,16.29c.09-.29.35-.5.67-.5s.58.21.67.5h-1.34ZM19.18,22.09h6.8v4.1h-6.8v-4.1h0Z"/><path class="e" d="M17.86,31l-.2-.09c-.52-.24-3.16-1.51-3.64-3.37l-.03-.12v-6.55l.03-.12c.37-1.46,2.02-2.55,2.97-3.07v-1.19c0-3.03,2.47-5.5,5.5-5.5.37,0,.75.04,1.13.11,2.53.51,4.37,2.84,4.37,5.56v1c1,.53,2.76,1.65,2.99,3.18v.07s.01,6.45.01,6.45v.07c-.3,1.93-2.98,3.23-3.51,3.47l-.2.09h-9.43ZM27,27v-6h-9v6h9ZM24,17v-.83c0-.74-.42-1.39-1.03-1.59-.16-.05-.32-.08-.47-.08-.83,0-1.5.76-1.5,1.7v.8h3Z"/><path class="c" d="M22.5,11.99c.3,0,.62.03.93.09,2.12.42,3.57,2.41,3.57,4.58v1.63s2.78,1.21,3,2.7v6.3c-.22,1.49-2.92,2.71-2.92,2.71h-9s-2.7-1.22-3.08-2.71v-6.3c.38-1.49,3-2.7,3-2.7v-1.8c0-2.49,2.01-4.5,4.5-4.5M20,18h5v-1.83c0-1.12-.65-2.19-1.71-2.54-.27-.09-.53-.13-.79-.13-1.38,0-2.5,1.21-2.5,2.7v1.8M17.9,28h9.2c.5,0,.9-.4.9-.9v-6.2c0-.5-.4-.9-.9-.9h-9.2c-.5,0-.9.4-.9.9v6.2c0,.5.4.9.9.9M22.5,9.99c-3.58,0-6.5,2.92-6.5,6.5v.61c-1.11.69-2.54,1.84-2.94,3.4l-.06.24v6.8l.06.24c.57,2.25,3.35,3.66,4.19,4.04l.39.18h9.86l.39-.18c.87-.39,3.72-1.85,4.08-4.24l.02-.15v-6.6l-.02-.15c-.25-1.69-1.78-2.91-2.98-3.62v-.41c0-3.19-2.18-5.94-5.18-6.54-.44-.09-.88-.13-1.32-.13h0ZM22.02,16c.07-.3.28-.5.48-.5.05,0,.1,0,.16.03.15.05.28.24.32.47h-.96ZM19,22h7v4h-7v-4h0Z"/></svg>