<?xml version="1.0" encoding="UTF-8"?><svg id="b" xmlns="http://www.w3.org/2000/svg" viewBox="0 0 32 32"><defs><style>.d,.e,.f,.g{stroke-width:0px;}.d,.g{fill:#d8dcdb;}.e{fill:#ff0085;}.f{fill:#52bbd1;}.g{fill-rule:evenodd;}</style></defs><polygon class="e" points="21.99 12.37 11.69 5.84 1.66 12.11 .92 24.1 11.46 30.47 22.47 24.58 21.99 12.37"/><path class="d" d="M23,11.78v-.11l-.08-.21s-.06-.09-.1-.13c-.04-.06-.08-.11-.12-.17l-.12-.1-.22-.11-10.23-6.44c-.44-.28-1-.28-1.45,0L.55,10.96l-.12.11-.12.1c-.05.05-.09.11-.12.17-.04.04-.07.08-.1.13l-.08.21v.11c-.01.12-.01.24,0,.36v12.15c0,.48.24.93.64,1.18l10.23,6.44h0c.06.04.13.07.2.08h.11c.23.07.48.07.71,0h.11c.07-.02.14-.04.2-.08h0l10.16-6.44c.4-.25.64-.7.64-1.18v-12.15c.01-.12.01-.24,0-.36ZM10,28.52l-8-4.95v-9.28l8,4.93v9.29ZM11.69,16.91l-7.79-4.81,7.79-4.8,7.79,4.8-7.79,4.81ZM21,23.57l-8,4.95v-9.29l8-4.93v9.28Z"/><path id="c" class="f" d="M30,7c0,.55-.45,1-1,1h-2v16h2c.55,0,1,.45,1,1,0,.27-.11.52-.3.7l-4,4c-.19.19-.44.3-.7.3s-.52-.11-.7-.3l-4-4c-.19-.19-.3-.44-.3-.7,0-.55.45-1,1-1h2V8h-2c-.55,0-1-.45-1-1,0-.27.11-.52.3-.7l4-4c.19-.19.44-.3.7-.3s.52.11.7.3l4,4c.19.19.3.44.3.7Z"/><path class="g" d="M21,10.51v11.19c-1.59.09-2.88,1.43-2.88,3.04,0,.81.32,1.58.89,2.15l3.84,3.84c.57.57,1.34.89,2.15.89s1.58-.32,2.15-.89l3.84-3.84c.57-.57.89-1.33.89-2.15,0-1.61-1.29-2.95-2.88-3.04v-11.19c1.59-.09,2.88-1.43,2.88-3.04,0-.81-.32-1.58-.89-2.15l-3.84-3.84c-.57-.57-1.34-.89-2.15-.89s-1.58.32-2.15.89l-3.84,3.84c-.57.57-.89,1.33-.89,2.15,0,1.61,1.29,2.95,2.88,3.04ZM30,7c0,.55-.45,1-1,1h-2v16h2c.55,0,1,.45,1,1,0,.27-.11.52-.3.7l-4,4c-.19.19-.44.3-.7.3s-.52-.11-.7-.3l-4-4c-.19-.19-.3-.44-.3-.7,0-.55.45-1,1-1h2V8h-2c-.55,0-1-.45-1-1,0-.27.11-.52.3-.7l4-4c.19-.19.44-.3.7-.3s.52.11.7.3l4,4c.19.19.3.44.3.7Z"/></svg>