<?xml version="1.0" encoding="UTF-8"?><svg id="b" xmlns="http://www.w3.org/2000/svg" viewBox="0 0 32 32"><defs><style>.f,.g,.h,.i{stroke-width:0px;}.f,.i{fill:#d8dcdb;}.g{fill:#ff0085;}.h{fill:#52bbd1;}.i{fill-rule:evenodd;}</style></defs><path id="c" class="f" d="M26.83,2.07H5.17c-1.7,0-3.1,1.39-3.1,3.1v21.67c0,1.7,1.39,3.1,3.1,3.1h21.67c1.7,0,3.1-1.39,3.1-3.1V5.17c0-1.7-1.39-3.1-3.1-3.1Z"/><path class="i" d="M26.83,0H5.17C2.32,0,0,2.32,0,5.17v21.67c0,2.84,2.32,5.17,5.17,5.17h21.67c2.84,0,5.17-2.32,5.17-5.17V5.17c0-2.84-2.32-5.17-5.17-5.17ZM26.83,2.07H5.17c-1.7,0-3.1,1.39-3.1,3.1v21.67c0,1.7,1.39,3.1,3.1,3.1h21.67c1.7,0,3.1-1.39,3.1-3.1V5.17c0-1.7-1.39-3.1-3.1-3.1Z"/><path id="d" class="g" d="M26.9,2H5.1c-1.7,0-3.1,1.39-3.1,3.1v21.81c0,1.7,1.39,3.1,3.1,3.1h21.81c1.7,0,3.1-1.39,3.1-3.1V5.1c0-1.7-1.39-3.1-3.1-3.1ZM27,27H5V5h22v22Z"/><path id="e" class="g" d="M7.72,9.56v3.68h1.84v-3.68h3.68v-1.84h-3.68c-1.01,0-1.84.83-1.84,1.84ZM9.56,18.76h-1.84v3.68c0,1.01.83,1.84,1.84,1.84h3.68v-1.84h-3.68v-3.68ZM22.44,22.44h-3.68v1.84h3.68c1.01,0,1.84-.83,1.84-1.84v-3.68h-1.84v3.68ZM22.44,7.72h-3.68v1.84h3.68v3.68h1.84v-3.68c0-1.01-.83-1.84-1.84-1.84Z"/><path class="h" d="M14.21,31c-.65,0-1.27-.27-1.74-.74-.97-.98-.97-2.57,0-3.54l5.23-5.23-5.24-5.23c-.98-.98-.98-2.57,0-3.54.47-.47,1.1-.73,1.77-.73s1.3.26,1.77.73l5.23,5.24,5.23-5.24c.47-.47,1.1-.73,1.77-.73s1.3.26,1.77.73c.47.47.73,1.1.73,1.77,0,.67-.26,1.3-.73,1.77l-5.24,5.23,5.24,5.23c.48.48.74,1.11.74,1.78,0,.67-.27,1.29-.74,1.76-.47.47-1.1.73-1.76.73-.68,0-1.31-.27-1.78-.74l-5.22-5.23-5.23,5.24c-.49.49-1.07.74-1.73.74h-.08Z"/><path class="f" d="M28.25,12.99c.4,0,.78.16,1.06.44.28.28.44.66.44,1.06,0,.4-.16.78-.44,1.06l-5.95,5.94,5.95,5.94c.29.29.44.67.44,1.07,0,.4-.16.78-.44,1.06-.29.29-.66.44-1.06.44h0c-.4,0-.78-.16-1.06-.44l-5.94-5.94-5.94,5.95c-.28.28-.6.44-1.02.44-.02,0-.03,0-.05,0-.4,0-.78-.16-1.06-.44-.59-.59-.58-1.54,0-2.13l5.94-5.94-5.95-5.94c-.59-.59-.59-1.54,0-2.13.28-.28.66-.44,1.06-.44h0c.4,0,.78.16,1.06.44l5.94,5.95,5.94-5.95c.28-.28.66-.44,1.06-.44h0M28.25,10.99c-.94,0-1.82.36-2.48,1.03l-4.52,4.53-4.52-4.53c-.66-.66-1.54-1.03-2.48-1.03s-1.82.36-2.48,1.03c-1.37,1.37-1.37,3.59,0,4.95l4.53,4.52-4.53,4.52c-1.36,1.35-1.37,3.58-.01,4.95.66.66,1.53,1.03,2.47,1.04h0s.05,0,.05,0c.64,0,1.58-.18,2.43-1.02l4.53-4.53,4.52,4.53c.65.66,1.53,1.03,2.46,1.03.95,0,1.82-.36,2.49-1.02.66-.66,1.03-1.53,1.03-2.47,0-.94-.36-1.82-1.02-2.49l-4.53-4.53,4.53-4.52c.67-.67,1.03-1.55,1.03-2.48,0-.93-.37-1.81-1.03-2.47-.66-.66-1.54-1.02-2.47-1.02h0Z"/></svg>