<?xml version="1.0" encoding="UTF-8"?><svg id="b" xmlns="http://www.w3.org/2000/svg" viewBox="0 0 32 32"><defs><style>.c,.d,.e,.f,.g,.h{stroke-width:0px;}.c,.h{fill:#d8dcdb;}.d,.f{fill:#ff0085;}.f,.h{fill-rule:evenodd;}.g{fill:#52bbd1;}</style></defs><path class="g" d="M15.88,29.44c-7.4,0-13.42-6.02-13.42-13.42S8.48,2.6,15.88,2.6s13.42,6.02,13.42,13.42-6.02,13.42-13.42,13.42Z"/><path class="c" d="M15.88,3.6c6.85,0,12.42,5.57,12.42,12.42s-5.57,12.42-12.42,12.42S3.46,22.87,3.46,16.02,9.03,3.6,15.88,3.6M15.88,1.6C7.93,1.6,1.46,8.07,1.46,16.02s6.47,14.42,14.42,14.42,14.42-6.47,14.42-14.42S23.83,1.6,15.88,1.6h0Z"/><path class="h" d="M24.59,16.01c0-4.71-3.87-8.58-8.58-8.58s-8.58,3.87-8.58,8.58,3.87,8.58,8.58,8.58,8.58-3.88,8.58-8.58"/><circle class="c" cx="16.01" cy="16.01" r="10.49"/><circle class="c" cx="16.01" cy="16.01" r="6.67"/><path class="f" d="M16.01,16.01V7.43c-4.71,0-8.58,3.87-8.58,8.58h8.58"/><path class="f" d="M16.01,16.01v8.58c4.71,0,8.58-3.88,8.58-8.58h-8.58"/><path class="e" d="M24.73,16.15H7.3c-.08,0-.14-.06-.14-.14s.06-.14.14-.14h17.43c.08,0,.14.06.14.14s-.06.14-.14.14Z"/><path class="e" d="M16.01,24.87c-.08,0-.14-.06-.14-.14V7.3c0-.08.06-.14.14-.14s.14.06.14.14v17.43c0,.08-.06.14-.14.14Z"/><path class="d" d="M16,31c-1.46,0-2.65-1.19-2.65-2.65v-9.7H3.66c-1.46,0-2.65-1.19-2.65-2.65s1.19-2.65,2.65-2.65h9.7V3.67c0-1.46,1.19-2.65,2.65-2.65s2.65,1.19,2.65,2.65v9.7h9.7c1.46,0,2.65,1.19,2.65,2.65s-1.19,2.65-2.65,2.65h-9.7v9.7c0,1.46-1.19,2.65-2.65,2.65Z"/><path class="c" d="M16,1.94c.96,0,1.74.78,1.74,1.74v10.61h10.61c.96,0,1.74.78,1.74,1.74s-.78,1.74-1.74,1.74h-10.61v10.61c0,.96-.78,1.74-1.74,1.74s-1.74-.78-1.74-1.74v-10.61H3.65c-.96,0-1.74-.78-1.74-1.74s.78-1.74,1.74-1.74h10.61V3.67c0-.96.78-1.74,1.74-1.74M16,.11c-1.96,0-3.56,1.6-3.56,3.56v8.79H3.65c-1.96,0-3.56,1.6-3.56,3.56s1.6,3.56,3.56,3.56h8.79v8.79c0,1.96,1.6,3.56,3.56,3.56s3.56-1.6,3.56-3.56v-8.79h8.79c1.96,0,3.56-1.6,3.56-3.56s-1.6-3.56-3.56-3.56h-8.79V3.67c0-1.96-1.6-3.56-3.56-3.56h0Z"/></svg>