<?xml version="1.0" encoding="UTF-8"?><svg id="b" xmlns="http://www.w3.org/2000/svg" viewBox="0 0 32 32"><defs><style>.c,.d,.e,.f,.g{stroke-width:0px;}.c,.g{fill:#d8dcdb;}.d{fill:#ff0085;}.e{fill:#52bbd1;}.e,.g{fill-rule:evenodd;}.f{fill:none;}</style></defs><path class="g" d="M31.14,14.4c-.24-.87-1.04-1.48-1.95-1.48h-2.73c-.66,0-1.28.32-1.66.86-.38.54-.47,1.23-.24,1.85.92,2.5.37,5.42-1.63,7.42-1.38,1.38-3.19,2.07-5,2.07-.98,0-1.96-.21-2.87-.62-.76-.34-1.66-.17-2.25.42l-1.94,1.94c-.45.45-.66,1.09-.57,1.72.09.63.47,1.18,1.03,1.49,2.06,1.13,4.33,1.7,6.6,1.7,3.51,0,7.03-1.34,9.69-4.02,3.62-3.61,4.8-8.75,3.52-13.35ZM29.19,14.94h-2.73c1.18,3.22.48,6.97-2.1,9.55-1.78,1.78-4.11,2.66-6.43,2.66-1.26,0-2.52-.27-3.69-.79l-1.94,1.94c1.75.96,3.69,1.46,5.63,1.46,2.99,0,5.99-1.14,8.26-3.43,3.09-3.08,4.09-7.46,3-11.38Z"/><path class="e" d="M29.2,15h-2.73c1.18,3.22.48,6.97-2.1,9.55-1.78,1.78-4.11,2.66-6.43,2.66-1.26,0-2.52-.27-3.69-.79l-1.94,1.94c1.75.96,3.69,1.46,5.63,1.46,2.99,0,5.99-1.14,8.26-3.43,3.09-3.08,4.09-7.46,3-11.38Z"/><polygon class="d" points="21.99 12.37 11.69 5.84 1.66 12.11 .92 24.1 11.46 30.47 22.47 24.58 21.99 12.37"/><path class="c" d="M23,11.78v-.11l-.08-.21s-.06-.09-.1-.13c-.04-.06-.08-.11-.12-.17l-.12-.1-.22-.11-10.23-6.44c-.44-.28-1-.28-1.45,0L.55,10.96l-.12.11-.12.1c-.05.05-.09.11-.12.17-.04.04-.07.08-.1.13l-.08.21v.11c-.01.12-.01.24,0,.36v12.15c0,.48.24.93.64,1.18l10.23,6.44h0c.06.04.13.07.2.08h.11c.23.07.48.07.71,0h.11c.07-.02.14-.04.2-.08h0l10.16-6.44c.4-.25.64-.7.64-1.18v-12.15c.01-.12.01-.24,0-.36ZM10,28.52l-8-4.95v-9.28l8,4.93v9.29ZM11.69,16.91l-7.79-4.81,7.79-4.8,7.79,4.8-7.79,4.81ZM21,23.57l-8,4.95v-9.29l8-4.93v9.28Z"/><path class="f" d="M26.47,14.94c-.43-1.21-1.13-2.35-2.1-3.32-1.78-1.78-4.11-2.66-6.43-2.66v4.21l-5.51-5.51,5.51-5.51v4.21c2.99,0,5.99,1.14,8.26,3.43,1.48,1.48,2.49,3.26,3,5.15h4.15V-3H4.54V14.94s21.93,0,21.93,0Z"/><path class="e" d="M26.54,15h2.73c-.51-1.89-1.52-3.67-3-5.15-2.27-2.29-5.28-3.43-8.26-3.43V2.21l-5.51,5.51,5.51,5.51v-4.21c2.33,0,4.65.88,6.43,2.66.97.97,1.67,2.1,2.1,3.32Z"/><path class="g" d="M26.95,16.96c-.08-.69-.25-1.37-.49-2.02-.43-1.21-1.13-2.35-2.1-3.32-1.78-1.78-4.11-2.66-6.43-2.66v4.21l-5.51-5.51,5.51-5.51v4.21c2.99,0,5.99,1.14,8.26,3.43,1.48,1.48,2.49,3.26,3,5.15.18.65.31,1.32.37,1.99.49-.09.93-.36,1.23-.76.38-.5.51-1.15.34-1.76-.6-2.22-1.78-4.31-3.52-6.05-2.15-2.16-4.86-3.46-7.67-3.87v-2.34c0-.82-.49-1.55-1.25-1.87-.76-.31-1.62-.14-2.2.44l-5.51,5.51c-.79.79-.79,2.07,0,2.86l5.51,5.51c.58.58,1.45.75,2.2.44.76-.31,1.25-1.05,1.25-1.87v-1.9c1.09.32,2.12.92,2.98,1.78.75.75,1.29,1.62,1.63,2.56.29.81,1.05,1.35,1.91,1.35h.49Z"/></svg>