<?xml version="1.0" encoding="UTF-8"?><svg id="b" xmlns="http://www.w3.org/2000/svg" viewBox="0 0 32 32"><defs><style>.e,.f,.g,.h{stroke-width:0px;}.e,.h{fill:#d8dcdb;}.f{fill:#ff0085;}.g{fill:#52bbd1;}.g,.h{fill-rule:evenodd;}</style></defs><path id="c" class="f" d="M16.24,23.44l9.72-7.57,2.17-1.68-11.89-9.25L4.35,14.2l2.15,1.68,9.73,7.57Z"/><path class="g" d="M16.02,26.77c-.97,0-1.93-.33-2.69-.92L2.39,17.34c-1.07-.84-1.69-2.1-1.69-3.46,0-1.36.62-2.62,1.69-3.46L13.33,1.91c.77-.6,1.72-.92,2.69-.92s1.93.33,2.69.92l10.94,8.5c1.06.83,1.7,2.12,1.69,3.47,0,1.34-.64,2.64-1.7,3.46l-1.99,1.54-8.94,6.96c-.77.6-1.72.92-2.69.92h0ZM16.02,21.62l8.58-6.68,1.38-1.07-9.96-7.75-9.96,7.75,9.96,7.75Z"/><path class="e" d="M16.02,1.59c.82,0,1.64.27,2.32.8l10.94,8.51c.92.72,1.46,1.82,1.46,2.99,0,1.17-.54,2.27-1.47,2.99l-1.99,1.54-8.94,6.96c-.68.53-1.5.8-2.32.8s-1.64-.27-2.32-.8c0,0-8.96-6.96-8.96-6.96l-1.98-1.55c-.92-.72-1.46-1.82-1.46-2.99,0-1.17.54-2.27,1.46-2.99L13.69,2.39c.68-.53,1.5-.8,2.32-.8M16.02,22.38l8.94-6.96,1.99-1.54-10.94-8.51L5.08,13.88l1.98,1.54s8.96,6.96,8.96,6.96M16.02.39c-1.1,0-2.19.37-3.06,1.05L2.02,9.94C.8,10.9.1,12.33.1,13.88c0,1.55.7,2.98,1.92,3.93l1.98,1.55,8.96,6.96c.87.68,1.96,1.05,3.06,1.05s2.19-.37,3.06-1.05l8.94-6.96,1.99-1.54c1.23-.95,1.93-2.38,1.93-3.94,0-1.55-.7-2.99-1.92-3.94L19.08,1.44c-.87-.68-1.96-1.05-3.06-1.05h0ZM7.03,13.88l8.98-6.99,8.98,6.98-.77.6-8.21,6.39-8.22-6.39-.76-.59h0Z"/><path id="d" class="f" d="M4.98,3.76c-1.3-.23-1.83.31-1.6,1.6l5.33,5.33-4.07,3.17,2.06,1.6,9.3,7.23,2.65-2.06,1.81,1.81-4.46,3.46-9.3-7.23-2.06,1.59,11.36,8.84,6.25-4.86,4.77,4.77c1.4.33,1.92-.22,1.6-1.6L4.98,3.76ZM25.29,15.47l2.07-1.6L16,5.03l-3.67,2.87,9.94,9.95s3.03-2.37,3.03-2.37ZM25.86,21.43l1.5-1.16-1.81-1.81-1.5,1.16,1.81,1.81Z"/><path class="h" d="M5.4,17.07l-2.03,1.57c-.5.39-.8.99-.8,1.62,0,.64.29,1.24.79,1.63l11.36,8.84c.74.58,1.78.58,2.53,0l4.82-3.75,3.49,3.49c.27.27.61.46.99.55,1.66.39,2.74-.08,3.38-.72.62-.63,1.07-1.72.7-3.34-.09-.38-.28-.72-.55-1l-2.93-2.93,1.47-1.14c.47-.36.76-.91.79-1.5.04-.59-.18-1.17-.6-1.59l-1.81-1.81c-.05-.05-.1-.1-.16-.14l1.77-1.37c.5-.39.8-.99.8-1.62,0-.64-.29-1.24-.79-1.63L17.26,3.4c-.74-.58-1.78-.58-2.53,0l-3.67,2.87c-.13.1-.24.21-.34.33L6.43,2.31c-.3-.3-.68-.5-1.09-.57-1.54-.28-2.57.17-3.2.81-.62.63-1.05,1.65-.79,3.17.07.42.27.81.57,1.11l3.68,3.68-2.23,1.74c-.5.39-.79.99-.79,1.62,0,.63.29,1.23.79,1.62,0,0,2.03,1.58,2.03,1.58ZM4.98,3.76c-1.3-.23-1.83.31-1.6,1.6l5.33,5.33-4.07,3.17,2.06,1.6,9.3,7.23,2.65-2.06,1.81,1.81-4.46,3.46-9.3-7.23-2.06,1.59,11.36,8.84,6.25-4.86,4.77,4.77c1.4.33,1.92-.22,1.6-1.6L4.98,3.76ZM25.86,21.43l1.5-1.16-1.81-1.81-1.5,1.16,1.81,1.81ZM25.29,15.47l2.07-1.6L16,5.03l-3.67,2.87,9.94,9.95s3.03-2.37,3.03-2.37Z"/></svg>