<?xml version="1.0" encoding="UTF-8"?><svg id="b" xmlns="http://www.w3.org/2000/svg" viewBox="0 0 32 32"><defs><style>.f,.g,.h,.i{stroke-width:0px;}.f,.i{fill:#d8dcdb;}.g{fill:#ff0085;}.h{fill:#52bbd1;}.h,.i{fill-rule:evenodd;}</style></defs><path class="h" d="M16.15,26.77c-.97,0-1.93-.33-2.69-.92L2.51,17.34c-1.08-.84-1.69-2.1-1.69-3.46,0-1.36.62-2.62,1.69-3.46L13.45,1.91c.77-.6,1.72-.92,2.69-.92s1.93.33,2.69.92l10.94,8.5c1.06.83,1.7,2.12,1.69,3.47,0,1.34-.64,2.64-1.7,3.46l-1.99,1.54-8.94,6.96c-.77.6-1.72.92-2.69.92h0ZM16.14,21.62l8.58-6.68,1.38-1.07-9.96-7.75-9.96,7.75,9.96,7.75Z"/><path class="f" d="M16.14,1.59c.82,0,1.64.27,2.32.8l10.94,8.51c.92.72,1.46,1.82,1.46,2.99,0,1.17-.54,2.27-1.47,2.99l-1.99,1.54-8.94,6.96c-.68.53-1.5.8-2.32.8s-1.64-.27-2.32-.8c0,0-8.96-6.96-8.96-6.96l-1.98-1.55c-.92-.72-1.46-1.82-1.46-2.99,0-1.17.54-2.27,1.46-2.99L13.82,2.39c.68-.53,1.5-.8,2.32-.8M16.14,22.38l8.94-6.96,1.99-1.54-10.94-8.51L5.21,13.88l1.98,1.54,8.96,6.96M16.14.39c-1.1,0-2.19.37-3.06,1.05L2.15,9.94c-1.22.95-1.92,2.38-1.92,3.93,0,1.55.7,2.98,1.92,3.93l1.98,1.55,8.96,6.96c.87.68,1.96,1.05,3.06,1.05s2.19-.37,3.06-1.05l8.94-6.96,1.99-1.54c1.23-.95,1.93-2.38,1.93-3.94,0-1.55-.7-2.99-1.92-3.94L19.2,1.44c-.87-.68-1.96-1.05-3.06-1.05h0ZM7.16,13.88l8.98-6.99,8.98,6.98-.77.6-8.21,6.39-8.22-6.39-.76-.59h0Z"/><path id="c" class="g" d="M16.13,23.29l-6.23-8.07-4.68-1.93,10.91-8.5,11.89,9.25-2.15,1.68-9.74,7.57Z"/><path id="d" class="g" d="M16.16,26.26l9.57-7.44,2.1,1.64-11.68,9.09-11.68-9.09,2.12-1.65s9.58,7.45,9.58,7.45ZM16.14,22.96l-9.55-7.44-2.13-1.65,11.68-9.09,11.68,9.09-2.12,1.65-9.57,7.44Z"/><path class="i" d="M5.44,17.17s-.06.04-.09.07l-2.12,1.65c-.49.38-.77.96-.77,1.58,0,.62.29,1.2.77,1.58l11.68,9.09c.72.56,1.73.56,2.45,0l11.68-9.09c.49-.38.77-.96.77-1.58s-.28-1.2-.77-1.58l-2.1-1.64s-.07-.05-.1-.07l.09-.07,2.12-1.65c.49-.38.77-.96.77-1.58,0-.62-.29-1.2-.77-1.58L17.37,3.22c-.72-.56-1.73-.56-2.45,0L3.24,12.3c-.49.38-.77.96-.77,1.58,0,.62.29,1.2.78,1.58l2.13,1.65s.08.06.08.06ZM16.16,26.26l9.57-7.44,2.1,1.64-11.68,9.09-11.68-9.09,2.12-1.65,9.58,7.45ZM16.14,22.96l-9.55-7.44-2.13-1.65,11.68-9.09,11.68,9.09-2.12,1.65s-9.57,7.44-9.57,7.44Z"/><path id="e" class="h" d="M2.85,14.18l6.59,6.59-6.59,6.59c-.49.49-.49,1.29,0,1.79.49.49,1.3.49,1.79,0l7.46-7.46c.25-.25.38-.59.37-.92,0-.33-.11-.67-.37-.92l-7.46-7.46c-.49-.49-1.3-.49-1.79,0-.49.49-.49,1.3,0,1.79Z"/><path class="i" d="M1.08,15.95l4.83,4.82-4.83,4.82c-1.47,1.47-1.47,3.85,0,5.32,0,0,0,0,0,0,1.47,1.47,3.85,1.47,5.32,0,0,0,7.46-7.46,7.46-7.46.74-.74,1.11-1.72,1.1-2.69,0-.97-.36-1.95-1.1-2.69,0,0-7.46-7.46-7.46-7.46,0,0,0,0,0,0-1.47-1.47-3.85-1.47-5.32,0h0c-1.47,1.47-1.47,3.85,0,5.32ZM2.85,14.18l6.59,6.59-6.59,6.59c-.49.49-.49,1.29,0,1.79.49.49,1.3.49,1.79,0l7.46-7.46c.25-.25.38-.59.37-.92,0-.33-.11-.67-.37-.92l-7.46-7.46c-.49-.49-1.3-.49-1.79,0-.49.49-.49,1.3,0,1.79Z"/></svg>