<?xml version="1.0" encoding="UTF-8"?><svg id="b" xmlns="http://www.w3.org/2000/svg" viewBox="0 0 32 32"><defs><style>.c,.d,.e,.f{stroke-width:0px;}.c,.f{fill:#d8dcdb;}.d{fill:#ff0085;}.d,.f{fill-rule:evenodd;}.e{fill:#52bbd1;}</style></defs><path class="f" d="M3.15,14.38s-.07.05-.1.07l-2.1,1.64c-.49.38-.77.96-.77,1.58s.28,1.2.77,1.58l11.68,9.09c.72.56,1.73.56,2.45,0l11.68-9.09c.49-.38.77-.96.77-1.58,0-.62-.28-1.2-.77-1.58l-2.12-1.65s-.06-.05-.09-.07l.08-.06,2.13-1.65c.49-.38.77-.96.77-1.58,0-.62-.28-1.2-.77-1.58L15.08.42c-.72-.56-1.73-.56-2.45,0L.95,9.51c-.49.38-.77.96-.77,1.58,0,.62.28,1.2.77,1.58l2.12,1.65.09.07Z"/><polygon class="d" points="13.84 23.47 4.28 16.03 2.17 17.67 13.86 26.75 25.54 17.67 23.42 16.02 13.84 23.47"/><polygon class="d" points="13.86 20.17 23.41 12.73 25.54 11.08 13.86 2 2.17 11.08 4.29 12.73 13.86 20.17"/><rect class="c" x="17.73" y="13.31" width="8.23" height="15.56"/><path class="e" d="M17,31c-2.21,0-4-1.79-4-4v-7c0-1.86,1.28-3.43,3-3.87v-1.4c0-.61.08-1.12.25-1.58.94-2.56,3.15-4.14,5.75-4.14,1.6,0,3.1.62,4.24,1.75.76.76,1.3,1.71,1.57,2.74.28,1.07-.37,2.17-1.44,2.44-.13.03-.27.05-.4.06h1.03c2.21,0,4,1.79,4,4v7c0,2.21-1.79,4-4,4h-10ZM17,27h10v-7h-10v7ZM25.77,16c-.87-.04-1.62-.65-1.84-1.5-.09-.35-.27-.67-.53-.93-.37-.37-.87-.58-1.41-.58-.44,0-1.09.14-1.71.83-.19.21-.29.52-.29.84v1.33h5.77Z"/><path class="c" d="M22,10c1.28,0,2.55.49,3.53,1.46.63.63,1.08,1.42,1.31,2.29.14.54-.18,1.08-.72,1.22-.08.02-.17.03-.25.03-.45,0-.85-.3-.97-.75-.14-.52-.4-1-.78-1.38-.56-.56-1.33-.88-2.12-.88-.85,0-1.73.36-2.45,1.16-.37.41-.55.96-.55,1.51v2.33h8c1.66,0,3,1.34,3,3v7c0,1.66-1.34,3-3,3h-10c-1.66,0-3-1.34-3-3v-7c0-1.66,1.34-3,3-3v-2.27c0-.42.05-.84.19-1.24.86-2.33,2.83-3.49,4.81-3.49M17,28h10c.55,0,1-.45,1-1v-7c0-.55-.45-1-1-1h-10c-.55,0-1,.45-1,1v7c0,.55.45,1,1,1M22,8c-2.99,0-5.61,1.88-6.69,4.8-.21.57-.31,1.2-.31,1.93v.69c-1.76.77-3,2.54-3,4.58v7c0,2.76,2.24,5,5,5h10c2.76,0,5-2.24,5-5v-7c0-2.2-1.43-4.07-3.41-4.74.28-.61.36-1.31.18-2.01-.32-1.21-.95-2.32-1.83-3.2-1.33-1.32-3.08-2.05-4.95-2.05h0ZM21,15v-.33c0-.11.03-.17.04-.18.29-.32.62-.49.96-.49.27,0,.52.1.71.29.12.12.21.29.26.47.02.08.05.17.08.25h-2.04ZM18,21h8v5h-8v-5h0Z"/></svg>