<?xml version="1.0" encoding="UTF-8"?><svg id="b" xmlns="http://www.w3.org/2000/svg" viewBox="0 0 32 32"><defs><style>.d,.e{fill:#ff0085;}.d,.e,.f,.g{stroke-width:0px;}.e,.g{fill-rule:evenodd;}.f{fill:#52bbd1;}.g{fill:#d8dcdb;}</style></defs><path id="c" class="d" d="M29.03,15.26h-2.19c-.36-5.42-4.69-9.75-10.1-10.1v-2.19c0-.39-.33-.71-.72-.71s-.71.32-.72.71v2.19c-5.42.36-9.75,4.69-10.1,10.1h-2.19c-.4,0-.72.33-.72.72s.33.72.72.72h2.19c.36,5.42,4.69,9.75,10.1,10.1v2.19c0,.39.33.71.72.71s.71-.32.72-.71v-2.19c5.42-.36,9.75-4.69,10.1-10.1h2.19c.4,0,.72-.33.72-.72s-.33-.72-.72-.72ZM15.29,23.93c-3.82-.34-6.88-3.4-7.22-7.22h1.44c.33,3.03,2.74,5.44,5.78,5.78v1.44ZM15.29,9.49c-3.03.33-5.44,2.74-5.78,5.78h-1.44c.34-3.82,3.4-6.88,7.22-7.22v1.44h0ZM16.74,8.04c3.82.34,6.88,3.4,7.22,7.22h-1.44c-.33-3.03-2.74-5.44-5.78-5.78v-1.44ZM16.74,23.93v-1.44c3.03-.33,5.44-2.74,5.78-5.78h1.44c-.34,3.82-3.4,6.88-7.22,7.22Z"/><path class="g" d="M29.03,13.26h-.46c-1.06-4.91-4.93-8.78-9.84-9.84v-.46s0-.03,0-.04c-.03-1.47-1.25-2.67-2.72-2.67s-2.69,1.19-2.72,2.67c0,.01,0,.03,0,.04v.46c-4.91,1.06-8.78,4.93-9.84,9.84h-.46c-1.49,0-2.72,1.23-2.72,2.72s1.23,2.72,2.72,2.72h.46c1.06,4.91,4.93,8.78,9.84,9.84v.46s0,.03,0,.04c.03,1.47,1.25,2.67,2.72,2.67s2.69-1.19,2.72-2.67c0-.01,0-.03,0-.04v-.46c4.91-1.06,8.78-4.93,9.84-9.84h.46c1.49,0,2.72-1.23,2.72-2.72s-1.23-2.72-2.72-2.72Z"/><path class="e" d="M29.03,15.26h-2.19c-.36-5.42-4.69-9.75-10.1-10.1v-2.19c0-.39-.33-.71-.72-.71s-.71.32-.72.71v2.19c-5.42.36-9.75,4.69-10.1,10.1h-2.19c-.4,0-.72.33-.72.72s.33.72.72.72h2.19c.36,5.42,4.69,9.75,10.1,10.1v2.19c0,.39.33.71.72.71s.71-.32.72-.71v-2.19c5.42-.36,9.75-4.69,10.1-10.1h2.19c.4,0,.72-.33.72-.72s-.33-.72-.72-.72Z"/><path class="g" d="M15.29,23.93c-3.82-.34-6.88-3.4-7.22-7.22h1.44c.33,3.03,2.74,5.44,5.78,5.78v1.44Z"/><path class="g" d="M16.74,23.93v-1.44c3.03-.33,5.44-2.74,5.78-5.78h1.44c-.34,3.82-3.4,6.88-7.22,7.22Z"/><path class="g" d="M15.29,9.49c-3.03.33-5.44,2.74-5.78,5.78h-1.44c.34-3.82,3.4-6.88,7.22-7.22v1.44h0Z"/><path class="g" d="M16.74,8.04c3.82.34,6.88,3.4,7.22,7.22h-1.44c-.33-3.03-2.74-5.44-5.78-5.78v-1.44Z"/><path class="f" d="M8.54,28.26l-1.98-2.71,1.8-2.47c.14-.17.22-.4.22-.64,0-.47-.35-.82-.89-.82-.31,0-.58.13-.76.4l-1.42,2.02-1.4-2.02c-.19-.27-.47-.4-.77-.4-.53,0-.89.35-.89.82,0,.24.09.47.22.64l1.8,2.47-1.97,2.71c-.14.17-.22.41-.22.64,0,.48.35.82.89.82.31,0,.57-.13.76-.39l1.58-2.28,1.59,2.28c.19.26.45.39.77.39.52,0,.88-.34.88-.82,0-.23-.08-.47-.2-.64Z"/><path class="g" d="M5.51,20.59c-.58-.65-1.34-.96-2.18-.96-1.79,0-2.89,1.26-2.89,2.82,0,.68.25,1.33.6,1.82,0,0,.94,1.29.94,1.29l-1.09,1.51c-.38.5-.62,1.18-.62,1.84,0,1.6,1.1,2.82,2.89,2.82.94,0,1.75-.38,2.35-1.17.59.79,1.39,1.17,2.36,1.17,1.76,0,2.87-1.21,2.87-2.82,0-.65-.23-1.33-.59-1.82h0s-1.12-1.53-1.12-1.53l.92-1.26c.38-.5.62-1.15.62-1.84,0-1.56-1.1-2.82-2.89-2.82-.85,0-1.61.31-2.17.96ZM8.54,28.26l-1.98-2.71,1.8-2.47c.14-.17.22-.4.22-.64,0-.47-.35-.82-.89-.82-.31,0-.58.13-.76.4l-1.42,2.02-1.4-2.02c-.19-.27-.47-.4-.77-.4-.53,0-.89.35-.89.82,0,.24.09.47.22.64l1.8,2.47-1.97,2.71c-.14.17-.22.41-.22.64,0,.48.35.82.89.82.31,0,.57-.13.76-.39l1.58-2.28,1.59,2.28c.19.26.45.39.77.39.52,0,.88-.34.88-.82,0-.23-.08-.47-.2-.64Z"/><path class="f" d="M18.71,21.62c-.27,0-.51.13-.67.34l-1.72,2.61-1.72-2.61c-.17-.22-.4-.34-.68-.34-.47,0-.85.39-.85.85,0,.18.05.33.14.47l2.19,3.22v2.67c0,.5.43.89.92.89s.92-.39.92-.89v-2.67l2.19-3.22c.09-.14.14-.28.14-.47,0-.47-.39-.85-.86-.85Z"/><path class="g" d="M18.71,19.62c-.93,0-1.74.42-2.28,1.15-.02.03-.04.06-.06.09l-.04.07-.04-.07s-.07-.1-.1-.14c-.56-.71-1.32-1.1-2.25-1.1-1.56,0-2.85,1.29-2.85,2.85,0,.62.16,1.11.47,1.57,0,0,0,.01.01.02l1.85,2.71v2.05c0,1.61,1.35,2.89,2.92,2.89s2.92-1.28,2.92-2.89v-2.05l1.85-2.71s0-.01.01-.02c.31-.46.47-.96.47-1.57,0-1.55-1.27-2.85-2.86-2.85ZM18.71,21.62c-.27,0-.51.13-.67.34l-1.72,2.61-1.72-2.61c-.17-.22-.4-.34-.68-.34-.47,0-.85.39-.85.85,0,.18.05.33.14.47l2.19,3.22v2.67c0,.5.43.89.92.89s.92-.39.92-.89v-2.67l2.19-3.22c.09-.14.14-.28.14-.47,0-.47-.39-.85-.86-.85Z"/><path class="f" d="M28.35,21.66h-3.42c-.44,0-.83.36-.83.83s.39.82.83.82h2.84l-3.64,4.32c-.69.89-.02,1.99,1.09,1.99h3.72c.44,0,.82-.36.82-.82s-.38-.83-.82-.83h-3.15l3.64-4.32c.69-.89.02-1.99-1.08-1.99Z"/><path class="g" d="M23.71,25.03l-1.11,1.32s-.03.04-.05.06c-.93,1.18-.88,2.52-.29,3.55.54.94,1.6,1.67,2.96,1.67h3.72c1.53,0,2.82-1.25,2.82-2.82,0-1.23-.77-2.25-1.82-2.64l1.03-1.22s.03-.04.05-.06c.93-1.18.88-2.51.3-3.54-.54-.95-1.6-1.67-2.95-1.67h-3.42c-1.51,0-2.83,1.24-2.83,2.83,0,1.12.67,2.08,1.61,2.53ZM28.35,21.66h-3.42c-.44,0-.83.36-.83.83s.39.82.83.82h2.84l-3.64,4.32c-.69.89-.02,1.99,1.09,1.99h3.72c.44,0,.82-.36.82-.82s-.38-.83-.82-.83h-3.15l3.64-4.32c.69-.89.02-1.99-1.08-1.99Z"/></svg>