<?xml version="1.0" encoding="UTF-8"?><svg id="b" xmlns="http://www.w3.org/2000/svg" viewBox="0 0 32 32"><defs><style>.e,.f{fill:#ff0085;}.e,.f,.g,.h{stroke-width:0px;}.f,.h{fill-rule:evenodd;}.g{fill:#52bbd1;}.h{fill:#d8dcdb;}</style></defs><path id="c" class="e" d="M13.97,23.93l9.76-7.59,2.14,1.67-11.91,9.27L2.04,18.02l2.16-1.68s9.77,7.6,9.77,7.6ZM13.95,20.57l-9.74-7.59-2.17-1.68L13.95,2.04l11.91,9.27-2.16,1.68-9.76,7.59Z"/><path class="h" d="M3.04,14.66s-.06.05-.1.07l-2.16,1.68C.29,16.79,0,17.39,0,18.02c0,.63.29,1.22.79,1.61l11.91,9.27c.74.57,1.77.57,2.5,0l11.91-9.27c.5-.39.79-.98.79-1.61s-.29-1.22-.79-1.61l-2.14-1.67s-.07-.05-.1-.07l.09-.07,2.16-1.68c.5-.39.79-.98.79-1.61,0-.63-.29-1.22-.79-1.61L15.2.43c-.74-.57-1.77-.57-2.5,0L.79,9.7C.29,10.08,0,10.68,0,11.31c0,.63.29,1.22.79,1.61l2.17,1.68.08.06Z"/><polygon class="f" points="13.97 23.93 23.72 16.35 25.87 18.02 13.95 27.28 2.04 18.02 4.2 16.34 13.97 23.93"/><polygon class="f" points="13.95 20.57 4.21 12.99 2.04 11.31 13.95 2.04 25.87 11.31 23.71 12.99 13.95 20.57"/><path id="d" class="g" d="M28.06,20h-4.06s0-3.82,0-3.82c0-1.04-.71-2.02-1.74-2.16-1.26-.18-2.33.78-2.33,1.98l.07,4h-4.02c-1.03,0-2,.69-2.14,1.71-.18,1.23.79,2.29,2.01,2.29l4.14-.07-.07,4.07c0,1.2,1.08,2.15,2.33,1.98,1.03-.14,1.74-1.12,1.74-2.16v-3.82s4.15.07,4.15.07c1.31,0,2.34-1.19,2.01-2.53-.23-.93-1.14-1.54-2.1-1.54Z"/><path class="h" d="M27.97,18h-1.97s0-1.97,0-1.97c0-2.11-1.54-4.01-3.64-4.19-2.37-.21-4.36,1.66-4.36,3.98,0,.01,0,.02,0,.03l.04,2.15h-2.01c-2.11,0-4.01,1.54-4.19,3.64-.21,2.37,1.66,4.36,3.98,4.36.01,0,.02,0,.03,0l2.19-.04-.04,2.19h0c-.02,1.56.83,3.05,2.26,3.66,2.92,1.25,5.74-.86,5.74-3.63v-2.22l2.15.04s.02,0,.03,0c2.33,0,4.19-1.99,3.98-4.36-.18-2.1-2.08-3.64-4.19-3.64ZM28.06,20h-4.06s0-3.82,0-3.82c0-1.04-.71-2.02-1.74-2.16-1.26-.18-2.33.78-2.33,1.98l.07,4h-4.02c-1.03,0-2,.69-2.14,1.71-.18,1.23.79,2.29,2.01,2.29l4.14-.07-.07,4.07c0,1.2,1.08,2.15,2.33,1.98,1.03-.14,1.74-1.12,1.74-2.16v-3.82s4.15.07,4.15.07c1.31,0,2.34-1.19,2.01-2.53-.23-.93-1.14-1.54-2.1-1.54Z"/></svg>