<?xml version="1.0" encoding="UTF-8"?><svg id="b" xmlns="http://www.w3.org/2000/svg" viewBox="0 0 32 32"><defs><style>.c{fill:#d8dcdb;}.c,.d,.e{stroke-width:0px;}.d{fill:#ff0085;}.e{fill:#52bbd1;}</style></defs><rect class="e" x="3.87" y="7.42" width="23.42" height="19.58"/><path class="d" d="M28.55,30.93c-.64,0-1.24-.25-1.69-.7l-1.4-1.41H6.23c-2.85,0-5.17-2.32-5.17-5.17v-11.16c0-2.18,1.36-4.05,3.27-4.81l-2.58-2.57c-.93-.93-.93-2.44,0-3.37.45-.45,1.05-.7,1.69-.7s1.24.25,1.69.7l25.19,25.21c.41.44.63,1.01.62,1.62,0,.64-.25,1.23-.7,1.68l-.07.07-.04.02c-.47.41-1.01.61-1.58.61h0ZM6.23,12.07c-.23,0-.41.18-.41.41v11.16c0,.23.18.41.41.41h14.49l-1.62-1.63c-.95.52-2,.8-3.1.8-3.62,0-6.57-2.94-6.57-6.56,0-1.09.28-2.15.8-3.08l-1.52-1.51h-2.48ZM28.55,23.01c-1.31,0-2.38-1.07-2.38-2.38v-8.15c0-.23-.18-.41-.41-.41h-2.79c-1.03,0-1.94-.66-2.26-1.64l-.75-2.27c-.05-.16-.21-.27-.39-.27h-6.14c-1.31,0-2.38-1.07-2.38-2.38s1.07-2.38,2.38-2.38h6.14c2.22,0,4.17,1.39,4.9,3.45l.23.74h1.06c2.85,0,5.17,2.32,5.17,5.17v8.15c0,1.31-1.07,2.38-2.38,2.38Z"/><path class="c" d="M3.44,2.02c.36,0,.72.14.99.41l25.11,25.13s0,0,0,0c.54.55.54,1.43,0,1.97,0,0,0,0,0,0-.27.27-.63.4-.98.4s-.72-.14-.99-.41l-1.69-1.7H6.23c-2.31,0-4.19-1.87-4.19-4.19v-11.16c0-2.31,1.87-4.19,4.19-4.19h.13l-3.91-3.89c-.55-.55-.55-1.43,0-1.98.27-.27.63-.41.99-.41M6.23,25.04h16.87l-3.86-3.86c-.94.69-2.07,1.07-3.24,1.07-3.08,0-5.58-2.5-5.58-5.58,0-1.16.38-2.29,1.07-3.22l-2.37-2.36h-2.89c-.77,0-1.4.62-1.4,1.4v11.16c0,.77.62,1.4,1.4,1.4M16.01,19.46c.42,0,.84-.1,1.22-.28l-3.74-3.74c-.19.38-.28.8-.28,1.23,0,1.54,1.25,2.79,2.79,2.79,0,0,0,0,.01,0M19.6,4.11c1.77,0,3.35,1.12,3.95,2.79l.43,1.4h1.79c2.31,0,4.19,1.87,4.19,4.19v8.15c0,.77-.62,1.4-1.4,1.4s-1.4-.62-1.4-1.4v-8.15c0-.77-.62-1.4-1.4-1.4h-2.79c-.6,0-1.14-.39-1.33-.96l-.75-2.27c-.19-.57-.72-.95-1.32-.95,0,0,0,0,0,0h-6.14c-.77,0-1.4-.62-1.4-1.4s.62-1.4,1.4-1.4h6.14s.02,0,.03,0M3.44.05C2.54.05,1.69.4,1.06,1.03c-1.31,1.31-1.31,3.45,0,4.76l1.65,1.64C1.12,8.56.08,10.4.08,12.48v11.16c0,3.39,2.76,6.15,6.15,6.15h18.82l1.11,1.12c.64.64,1.48.99,2.39.99s1.73-.35,2.37-.98c.65-.64,1-1.48,1-2.38s-.34-1.74-.98-2.38l-2.19-2.19c1.76-.11,3.15-1.57,3.15-3.36v-8.15c0-3.39-2.76-6.15-6.15-6.15h-.34s-.01-.05-.01-.05v-.04c-.88-2.45-3.21-4.1-5.81-4.1h-.04s-6.12,0-6.12,0c-1.78,0-3.24,1.39-3.36,3.14L5.82,1.03C5.19.4,4.34.05,3.44.05h0ZM13.65,8.87h5.5l.62,1.87c.45,1.38,1.73,2.31,3.19,2.31h2.22v7.36l-11.54-11.54h0ZM6.8,13.06h1.5l.73.73c-.38.9-.59,1.87-.59,2.87,0,2.7,1.42,5.08,3.56,6.41h-5.2v-10.02h0Z"/></svg>