<?xml version="1.0" encoding="UTF-8"?><svg id="b" xmlns="http://www.w3.org/2000/svg" viewBox="0 0 32 32"><defs><style>.c{fill:#52bbd1;}.c,.d,.e{fill-rule:evenodd;}.c,.e{stroke-width:0px;}.d{fill:#ff0085;stroke:#d8dcdb;stroke-linecap:round;stroke-linejoin:round;stroke-width:2px;}.e{fill:#d8dcdb;}</style></defs><path class="d" d="M31.14,21.25l-15.15-7.16L.85,21.25l15.15,9.16,15.15-9.16Z"/><path class="c" d="M24.52,13h.04l-.03.03s0-.02,0-.03Z"/><path class="c" d="M13.78,13.32v-1.48c0-4.74,4.46-8.62,8.85-8.85-2.29,2.16-4.43,5.33-4.43,8.85v1.48s4.43,0,4.43,0l-6.63,7.37-.17-.16-6.48-7.2h4.43Z"/><path class="e" d="M23.95,4.39c.58-.55.76-1.41.45-2.15-.32-.74-1.06-1.2-1.86-1.16-5.18.27-10.39,4.78-10.66,10.33h-2.52c-.76,0-1.44.45-1.75,1.14-.31.69-.18,1.5.33,2.06l6.64,7.38c.36.4.88.63,1.42.63s1.06-.23,1.42-.63l6.64-7.38c.51-.56.63-1.37.33-2.06-.31-.69-.99-1.14-1.75-1.14h-2.5c.17-2.8,1.97-5.28,3.81-7.02ZM22.64,2.99c-4.39.23-8.85,4.11-8.85,8.85v1.48h-4.43s6.64,7.38,6.64,7.38l6.64-7.38h-4.43v-1.48c0-3.52,2.14-6.69,4.43-8.85Z"/></svg>