<?xml version="1.0" encoding="UTF-8"?><svg id="b" xmlns="http://www.w3.org/2000/svg" viewBox="0 0 32 32"><defs><style>.c{fill:#d8dcdb;}.c,.d,.e{stroke-width:0px;}.d{fill:#ff0085;}.e{fill:#52bbd1;}</style></defs><path class="d" d="M24.38,30.98c-3.63,0-6.58-2.95-6.58-6.58,0-.13,0-.26.01-.39l-6.12-2.81c-1.16.91-2.58,1.41-4.07,1.41-1.73,0-3.37-.67-4.6-1.88-2.59-2.54-2.64-6.71-.1-9.31,1.25-1.28,2.92-1.98,4.71-1.98,1.49,0,2.92.5,4.07,1.41l6.12-2.81c0-.12-.01-.25-.01-.38-.02-1.99.85-3.86,2.38-5.12,1.18-.98,2.67-1.51,4.2-1.51,1.97,0,3.82.87,5.07,2.38,2.32,2.8,1.93,6.95-.87,9.27-1.18.98-2.67,1.51-4.2,1.51-1.71,0-3.32-.65-4.54-1.81l-5.71,2.63c.12.67.12,1.36,0,2.03l5.71,2.63c1.21-1.17,2.82-1.84,4.54-1.85,3.64,0,6.59,2.95,6.59,6.58s-2.95,6.58-6.58,6.58ZM24.38,22.6c-.99,0-1.79.8-1.79,1.79s.8,1.79,1.79,1.79,1.79-.8,1.79-1.79-.8-1.79-1.79-1.79ZM7.63,14.23c-.99,0-1.79.8-1.79,1.79s.8,1.79,1.79,1.79,1.79-.8,1.79-1.79-.8-1.79-1.79-1.79ZM24.38,5.86c-.99,0-1.79.8-1.79,1.79s.8,1.79,1.79,1.79,1.79-.8,1.79-1.79-.8-1.79-1.79-1.79Z"/><path class="c" d="M24.37,2.02c1.6,0,3.2.69,4.3,2.02,1.97,2.37,1.64,5.89-.74,7.86-1.04.86-2.3,1.28-3.56,1.28-1.6,0-3.2-.69-4.3-2.02l-7.12,3.28c.33,1.02.33,2.13,0,3.15l7.12,3.28c1.05-1.3,2.63-2.05,4.3-2.07,3.08,0,5.58,2.5,5.58,5.58s-2.5,5.58-5.58,5.58-5.58-2.5-5.58-5.58c0-.33.04-.66.1-.99l-7.37-3.39c-1.08,1.06-2.49,1.59-3.9,1.59s-2.82-.53-3.9-1.59c-2.2-2.16-2.24-5.69-.09-7.89,1.09-1.12,2.54-1.68,3.99-1.68,1.41,0,2.82.53,3.9,1.59l7.37-3.39c-.06-.33-.09-.66-.1-.99-.01-1.68.73-3.27,2.02-4.34,1.04-.86,2.3-1.28,3.56-1.28M24.38,10.44c1.54,0,2.79-1.25,2.79-2.79s-1.25-2.79-2.79-2.79-2.79,1.25-2.79,2.79,1.25,2.79,2.79,2.79M7.63,18.81c1.54,0,2.79-1.25,2.79-2.79s-1.25-2.79-2.79-2.79-2.79,1.25-2.79,2.79,1.25,2.79,2.79,2.79M24.38,27.18c1.54,0,2.79-1.25,2.79-2.79s-1.25-2.79-2.79-2.79-2.79,1.25-2.79,2.79,1.25,2.79,2.79,2.79M24.37.02s0,0,0,0c-1.76,0-3.48.62-4.84,1.74-1.69,1.4-2.68,3.45-2.74,5.64l-4.99,2.3c-1.23-.82-2.68-1.26-4.19-1.26-2.06,0-3.98.81-5.42,2.28C.78,12.17.02,14.08.04,16.11s.83,3.92,2.28,5.34c1.43,1.39,3.31,2.16,5.3,2.16,1.51,0,2.96-.44,4.19-1.26l4.99,2.3c.14,4.08,3.49,7.33,7.58,7.33s7.58-3.4,7.58-7.58-3.4-7.58-7.58-7.58c-1.74.01-3.39.61-4.71,1.67l-4.46-2.05c.02-.27.02-.54,0-.82l4.47-2.06c1.33,1.05,2.98,1.63,4.7,1.63s3.48-.62,4.84-1.74c3.22-2.67,3.67-7.46,1-10.68C28.77,1.02,26.64.02,24.37.02h0ZM24.38,8.44c-.44,0-.79-.35-.79-.79s.35-.79.79-.79.79.35.79.79-.35.79-.79.79h0ZM7.63,16.81c-.44,0-.79-.35-.79-.79s.35-.79.79-.79.79.35.79.79-.35.79-.79.79h0ZM24.38,25.18c-.44,0-.79-.35-.79-.79s.35-.79.79-.79.79.35.79.79-.35.79-.79.79h0Z"/><path class="e" d="M4.75,30.96c-1.12,0-2.03-.85-2.03-1.88v-4.72c-.98-.06-1.75-.83-1.75-1.75s.85-1.76,1.89-1.76h1.75c1.24,0,2.18.87,2.18,2.02v6.21c0,1.04-.91,1.88-2.03,1.88Z"/><path class="c" d="M4.61,21.81c.69,0,1.21.44,1.21,1.05v6.21c0,.51-.49.91-1.06.91s-1.06-.41-1.06-.91v-5.69h-.84c-.49,0-.92-.35-.92-.79s.42-.79.92-.79h1.75M4.61,19.87h-1.75C1.28,19.87,0,21.09,0,22.59,0,23.72.72,24.7,1.75,25.11v3.96c0,1.57,1.35,2.85,3,2.85s3-1.28,3-2.85v-6.21c0-1.68-1.38-2.99-3.15-2.99h0Z"/><path class="e" d="M29.02,30.97c-.67,0-1.23-.25-1.64-.74l-1.12-1.4-1.09,1.37c-.43.5-1,.76-1.65.76-1.14,0-2.01-.78-2.01-1.8,0-.48.19-.95.51-1.3l1.75-2.09-1.58-1.89c-.31-.37-.48-.82-.48-1.27,0-1.03.86-1.8,2-1.8.67,0,1.26.27,1.66.76l.88,1.12.9-1.11c.37-.49.96-.77,1.64-.77,1.14,0,2.01.78,2.01,1.8,0,.48-.18.95-.51,1.3l-1.55,1.85,1.79,2.13c.29.35.47.81.47,1.27,0,1.03-.86,1.8-1.99,1.8Z"/><path class="c" d="M28.81,21.77c.62,0,1.04.36,1.04.83,0,.24-.09.47-.25.65l-2.1,2.51,2.31,2.75c.15.17.24.42.24.65,0,.49-.41.83-1.02.83-.37,0-.68-.13-.9-.39l-1.86-2.33-1.84,2.33c-.23.27-.53.39-.89.39-.62,0-1.04-.35-1.04-.83,0-.23.09-.47.25-.65l2.29-2.75-2.1-2.51c-.15-.17-.25-.4-.25-.65,0-.47.41-.83,1.03-.83.36,0,.68.13.9.4l1.63,2.06,1.66-2.06c.21-.28.53-.4.89-.4M28.81,19.83c-.97,0-1.84.42-2.41,1.14l-.12.15-.12-.16c-.6-.74-1.46-1.14-2.42-1.14-1.7,0-2.98,1.19-2.98,2.77,0,.68.25,1.36.71,1.9l1.05,1.26-1.24,1.48c-.46.52-.72,1.22-.72,1.92,0,1.58,1.28,2.77,2.98,2.77.94,0,1.78-.38,2.37-1.08l.02-.03.02-.03.33-.41.34.42.02.02.02.02c.59.7,1.44,1.08,2.38,1.08,1.69,0,2.96-1.19,2.96-2.77,0-.68-.25-1.37-.7-1.9l-1.26-1.5,1.03-1.24c.47-.53.73-1.21.73-1.92,0-1.58-1.28-2.77-2.98-2.77h0Z"/><path class="e" d="M9.35,30.93c-1.4,0-2.55-1.05-2.55-2.35s1.14-2.33,2.55-2.33,2.53,1.05,2.53,2.33-1.14,2.35-2.53,2.35ZM9.35,25.48c-1.4,0-2.55-1.05-2.55-2.34s1.14-2.33,2.55-2.33,2.53,1.05,2.53,2.33-1.14,2.34-2.53,2.34Z"/><path class="c" d="M9.35,21.77c.85,0,1.56.62,1.56,1.36s-.71,1.37-1.56,1.37-1.58-.6-1.58-1.37.71-1.36,1.58-1.36M9.35,27.23c.85,0,1.56.62,1.56,1.36s-.71,1.37-1.56,1.37-1.58-.6-1.58-1.37.71-1.36,1.58-1.36M9.35,19.83c-1.94,0-3.52,1.48-3.52,3.3,0,1.13.61,2.13,1.53,2.73-.92.6-1.53,1.59-1.53,2.72,0,1.83,1.58,3.31,3.52,3.31s3.5-1.49,3.5-3.31c0-1.13-.6-2.13-1.52-2.72.92-.6,1.52-1.6,1.52-2.73,0-1.82-1.57-3.3-3.5-3.3h0Z"/><path class="e" d="M19.34,30.97c-.66,0-1.23-.25-1.64-.73l-1.12-1.4-1.09,1.37c-.42.5-1,.76-1.65.76-1.14,0-2.01-.78-2.01-1.8,0-.48.19-.95.51-1.3l1.75-2.09-1.58-1.89c-.31-.36-.48-.82-.48-1.27,0-1.03.86-1.8,2.01-1.8.67,0,1.26.27,1.66.77l.88,1.11.9-1.11c.37-.49.96-.77,1.65-.77,1.14,0,2.01.78,2.01,1.8,0,.48-.18.95-.51,1.3l-1.55,1.85,1.79,2.13c.3.35.47.81.47,1.27,0,1.03-.86,1.8-1.99,1.8Z"/><path class="c" d="M19.13,21.77c.62,0,1.04.36,1.04.83,0,.24-.09.47-.25.65l-2.1,2.51,2.31,2.75c.15.17.24.42.24.65,0,.49-.41.83-1.02.83-.37,0-.68-.13-.9-.39l-1.86-2.33-1.84,2.33c-.23.27-.53.39-.89.39-.62,0-1.04-.35-1.04-.83,0-.23.09-.47.25-.65l2.29-2.75-2.1-2.51c-.15-.17-.25-.4-.25-.65,0-.47.41-.83,1.04-.83.36,0,.68.13.9.4l1.63,2.06,1.66-2.06c.21-.28.53-.4.89-.4M19.13,19.83c-.98,0-1.86.43-2.43,1.17l-.1.13-.12-.16c-.6-.74-1.46-1.14-2.42-1.14-1.7,0-2.98,1.19-2.98,2.77,0,.68.25,1.35.71,1.9l1.05,1.26-1.24,1.48c-.46.52-.72,1.22-.72,1.92,0,1.58,1.28,2.77,2.98,2.77.94,0,1.78-.38,2.37-1.08l.02-.02.02-.02.33-.42.34.42.02.02.02.02c.59.69,1.44,1.08,2.38,1.08,1.69,0,2.96-1.19,2.96-2.77,0-.68-.25-1.37-.69-1.9l-1.26-1.51,1.03-1.24c.47-.53.72-1.21.72-1.92,0-1.58-1.28-2.77-2.98-2.77h0Z"/></svg>