<?xml version="1.0" encoding="UTF-8"?><svg id="b" xmlns="http://www.w3.org/2000/svg" viewBox="0 0 32 32"><defs><style>.c{fill:#52bbd1;}.c,.d,.e{fill-rule:evenodd;}.c,.e{stroke-width:0px;}.d{fill:#ff0085;stroke:#d8dcdb;stroke-linecap:round;stroke-linejoin:round;stroke-width:2px;}.e{fill:#d8dcdb;}</style></defs><path class="c" d="M18.28,2.7c-1.34-.89-3.22-.89-4.56,0L3.52,9.49c-1.24.82-1.72,2.22-1.21,3.48.51,1.26,1.91,2.1,3.48,2.1h20.4c1.57.01,2.97-.83,3.49-2.09.51-1.26.03-2.65-1.2-3.48l-10.2-6.8Z"/><path class="e" d="M19.48,1.02c-2.04-1.36-4.91-1.36-6.95,0L2.33,7.81C.24,9.2-.51,11.58.36,13.71c.81,1.98,2.96,3.39,5.44,3.39h20.4c2.48.01,4.63-1.39,5.45-3.38.87-2.13.12-4.51-1.97-5.9,0,0-10.2-6.8-10.2-6.8ZM18.28,2.7c-1.34-.89-3.22-.89-4.56,0L3.52,9.49c-1.24.82-1.72,2.22-1.21,3.48.51,1.26,1.91,2.1,3.48,2.1h20.4c1.57.01,2.97-.83,3.49-2.09.51-1.26.03-2.65-1.2-3.48l-10.2-6.8Z"/><path class="d" d="M16.01,3.02l9.87,12.34H6.15S16.01,3.02,16.01,3.02Z"/><path class="d" d="M16.01,31l-9.87-12.34h19.73s-9.87,12.34-9.87,12.34Z"/></svg>