<?xml version="1.0" encoding="UTF-8"?><svg id="b" xmlns="http://www.w3.org/2000/svg" viewBox="0 0 32 32"><defs><style>.e,.f,.g,.h,.i{stroke-width:0px;}.e,.g,.i{fill-rule:evenodd;}.e,.h{fill:#52bbd1;}.f{fill:none;}.g{fill:#ff0085;}.i{fill:#d8dcdb;}</style></defs><rect id="c" class="f" x="0" y=".26" width="31.98" height="31.98"/><path class="g" d="M19.36,4.31l-1.34,2.24,3.59,2.69,1.79-5.38,6.72,13-4.03,8.07h-4.93l-1.79-4.48-1.79,1.79-2.69-3.14s-9.24,4.26-9.41,4.48c-.17.22-.45-3.14-.45-3.14l-3.14-5.83,6.27-4.03,3.14-4.93,2.24,1.34,2.24-3.14,3.59.45Z"/><path class="i" d="M21.3,3.82c-.03-.13-.08-.26-.14-.39-.3-.61-.88-1.02-1.55-1.11l-3.59-.45c-.73-.09-1.45.22-1.87.82l-1.17,1.64-.66-.4c-.93-.56-2.13-.27-2.71.64l-2.9,4.56L.8,12.93c-.88.56-1.17,1.71-.68,2.63l2.95,5.49c.1.91.35,2.95.51,3.3.35.8.95,1.05,1.28,1.15.59.18,1.25.18,1.84-.34,1.18-.62,5.42-2.59,7.64-3.62l1.7,1.99c.36.42.88.68,1.44.7.4.02.78-.09,1.12-.29l.69,1.72c.3.76,1.04,1.26,1.86,1.26h4.93c.76,0,1.45-.43,1.79-1.1l4.03-8.07c.29-.57.28-1.24-.01-1.81l-6.72-13c-.37-.71-1.13-1.14-1.93-1.07-.8.06-1.49.6-1.74,1.36,0,0-.2.6-.2.6ZM19.36,4.31l-1.34,2.24,3.59,2.69,1.79-5.38,6.72,13-4.03,8.07h-4.93l-1.79-4.48-1.79,1.79-2.69-3.14s-9.24,4.26-9.41,4.48c-.17.22-.45-3.14-.45-3.14l-3.14-5.83,6.27-4.03,3.14-4.93,2.24,1.34,2.24-3.14,3.59.45ZM4.77,21.67c-.28.15-.49.31-.63.43-.14.12-.23.22-.25.26.28-.36.58-.58.89-.69Z"/><path class="g" d="M21.75,26.56l1.89,3.31,1.99-3.31h-3.88Z"/><path class="i" d="M21.75,24.56c-.71,0-1.37.38-1.73,1-.36.62-.36,1.38,0,1.99l1.89,3.31c.35.62,1,1,1.71,1.01.71,0,1.37-.36,1.74-.97l1.99-3.31c.37-.62.38-1.39.03-2.01-.35-.63-1.02-1.01-1.74-1.01,0,0-3.88,0-3.88,0ZM21.75,26.56l1.89,3.31,1.99-3.31h-3.88Z"/><path class="h" d="M5.91,22.41c-1.44,0-3.03,1.17-3.03,3.61v.25c0,2.44,1.59,3.61,3.03,3.61s3.04-1.16,3.04-3.61v-.25c0-2.43-1.57-3.61-3.04-3.61ZM5.91,23.83c1.15,0,1.36,1.36,1.36,2.18v.25c0,.82-.21,2.18-1.36,2.18s-1.35-1.36-1.35-2.18v-.25c0-.82.2-2.18,1.35-2.18Z"/><path class="i" d="M5.91,20.41c-2.3,0-5.03,1.72-5.03,5.61v.25c0,3.91,2.73,5.61,5.03,5.61s5.04-1.7,5.04-5.61v-.25c0-3.89-2.69-5.61-5.04-5.61ZM5.91,22.41c-1.44,0-3.03,1.17-3.03,3.61v.25c0,2.44,1.59,3.61,3.03,3.61s3.04-1.16,3.04-3.61v-.25c0-2.43-1.57-3.61-3.04-3.61ZM5.91,23.83c1.15,0,1.36,1.36,1.36,2.18v.25c0,.82-.21,2.18-1.36,2.18s-1.35-1.36-1.35-2.18v-.25c0-.82.2-2.18,1.35-2.18Z"/><path class="h" d="M15.99,22.41c-1.44,0-3.03,1.17-3.03,3.61v.25c0,2.44,1.59,3.61,3.03,3.61s3.04-1.16,3.04-3.61v-.25c0-2.43-1.57-3.61-3.04-3.61ZM15.99,23.83c1.15,0,1.36,1.36,1.36,2.18v.25c0,.82-.21,2.18-1.36,2.18s-1.35-1.36-1.35-2.18v-.25c0-.82.2-2.18,1.35-2.18Z"/><path class="i" d="M15.99,20.41c-2.3,0-5.03,1.72-5.03,5.61v.25c0,3.91,2.73,5.61,5.03,5.61s5.04-1.7,5.04-5.61v-.25c0-3.89-2.69-5.61-5.04-5.61ZM15.99,22.41c-1.44,0-3.03,1.17-3.03,3.61v.25c0,2.44,1.59,3.61,3.03,3.61s3.04-1.16,3.04-3.61v-.25c0-2.43-1.57-3.61-3.04-3.61ZM15.99,23.83c1.15,0,1.36,1.36,1.36,2.18v.25c0,.82-.21,2.18-1.36,2.18s-1.35-1.36-1.35-2.18v-.25c0-.82.2-2.18,1.35-2.18Z"/><path class="h" d="M26.07,22.41c-1.44,0-3.03,1.17-3.03,3.61v.25c0,2.44,1.59,3.61,3.03,3.61s3.04-1.16,3.04-3.61v-.25c0-2.43-1.57-3.61-3.04-3.61ZM26.07,23.83c1.15,0,1.36,1.36,1.36,2.18v.25c0,.82-.21,2.18-1.36,2.18s-1.35-1.36-1.35-2.18v-.25c0-.82.2-2.18,1.35-2.18Z"/><path class="i" d="M26.07,20.41c-2.3,0-5.03,1.72-5.03,5.61v.25c0,3.91,2.73,5.61,5.03,5.61s5.04-1.7,5.04-5.61v-.25c0-3.89-2.69-5.61-5.04-5.61ZM26.07,22.41c-1.44,0-3.03,1.17-3.03,3.61v.25c0,2.44,1.59,3.61,3.03,3.61s3.04-1.16,3.04-3.61v-.25c0-2.43-1.57-3.61-3.04-3.61ZM26.07,23.83c1.15,0,1.36,1.36,1.36,2.18v.25c0,.82-.21,2.18-1.36,2.18s-1.35-1.36-1.35-2.18v-.25c0-.82.2-2.18,1.35-2.18Z"/><path id="d" class="e" d="M21,11.46v1.54h-5l7.5,7.7,7.5-7.7h-5v-1.54c0-4.95-5.04-9-10-9.24,2.59,2.26,5,5.57,5,9.24Z"/><path class="i" d="M18.86,11h-2.6c-.79,0-1.5.46-1.83,1.19-.32.72-.19,1.56.34,2.15l6.93,7.7c.38.42.92.66,1.49.66.57,0,1.11-.24,1.49-.66l6.93-7.7c.53-.59.66-1.43.34-2.15-.32-.72-1.04-1.19-1.83-1.19h-2.63C27.21,5.22,21.77.51,16.37.23c-.55-.03-1.11.16-1.5.55-.86.85-.78,2.15.01,2.9,1.92,1.82,3.8,4.4,3.98,7.32ZM21,11.46v1.54h-5l7.5,7.7,7.5-7.7h-5v-1.54c0-4.95-5.04-9-10-9.24,2.59,2.26,5,5.57,5,9.24Z"/></svg>