<?xml version="1.0" encoding="UTF-8"?><svg id="b" xmlns="http://www.w3.org/2000/svg" viewBox="0 0 32 32"><defs><style>.c{fill:#d8dcdb;}.c,.d{stroke-width:0px;}.e{fill:#ff0085;stroke:#d8dcdb;stroke-miterlimit:10;stroke-width:2px;}.d{fill:#52bbd1;}</style></defs><rect class="e" x="1" y=".98" width="25.96" height="25.96"/><path class="d" d="M19.93,30.63c-4.51,0-8.66-3.14-10.84-8.21-.22-.5-.22-1.09,0-1.6,2.18-5.06,6.33-8.2,10.84-8.2s8.66,3.14,10.84,8.2c.22.5.22,1.09,0,1.6-2.18,5.06-6.33,8.2-10.84,8.2ZM13.14,21.63c1.58,3.1,4.15,5,6.79,5-2.76,0-5-2.24-5-5s2.24-5,5-5,5,2.24,5,5-2.24,5-5,5c2.64,0,5.2-1.9,6.79-5-1.58-3.1-4.15-5-6.79-5s-5.2,1.9-6.79,5ZM19.93,20.63c-.55,0-1,.45-1,1s.45,1,1,1,1-.45,1-1-.45-1-1-1Z"/><path class="c" d="M19.93,13.63c4.1,0,7.9,2.91,9.92,7.6.11.26.11.54,0,.8-2.02,4.69-5.82,7.6-9.92,7.6s-7.9-2.91-9.92-7.6c-.11-.26-.11-.54,0-.8,2.02-4.69,5.82-7.6,9.92-7.6M19.93,27.63c3.17,0,6.17-2.29,7.9-6-1.73-3.71-4.73-6-7.9-6s-6.17,2.29-7.9,6c1.73,3.71,4.73,6,7.9,6M19.93,17.63c2.21,0,4,1.79,4,4s-1.79,4-4,4-4-1.79-4-4,1.79-4,4-4M19.93,23.63c1.1,0,2-.9,2-2s-.9-2-2-2-2,.9-2,2,.9,2,2,2M19.93,11.63c-4.91,0-9.42,3.38-11.76,8.81-.33.75-.33,1.63,0,2.39,2.34,5.42,6.84,8.8,11.75,8.8s9.42-3.38,11.76-8.81c.33-.75.33-1.63,0-2.39-2.34-5.42-6.84-8.8-11.75-8.8h0Z"/></svg>