<?xml version="1.0" encoding="UTF-8"?><svg id="b" xmlns="http://www.w3.org/2000/svg" viewBox="0 0 32 32"><defs><style>.d,.e,.f,.g{stroke-width:0px;}.d,.g{fill:#d8dcdb;}.e{fill:#52bbd1;}.e,.h,.f,.g{fill-rule:evenodd;}.h{stroke:#d8dcdb;stroke-linecap:round;stroke-linejoin:round;stroke-width:2px;}.h,.f{fill:#ff0085;}</style></defs><path class="h" d="M31.14,21.25l-15.15-7.16L.85,21.25l15.15,9.16,15.15-9.16Z"/><path id="c" class="f" d="M24.92,2.92l-3.41,3.41h-11.03l-3.41-3.41L2.61,7.38l4.46,4.46,3.41-3.41h11.03s3.41,3.41,3.41,3.41l4.46-4.46s-4.46-4.46-4.46-4.46Z"/><path class="g" d="M26.28,1.56c-.75-.75-1.96-.75-2.71,0l-2.85,2.85h-9.44l-2.85-2.85c-.75-.75-1.96-.75-2.71,0L1.25,6.03c-.75.75-.75,1.96,0,2.71l4.46,4.46c.75.75,1.96.75,2.71,0l2.85-2.85h9.45s2.85,2.85,2.85,2.85c.75.75,1.96.75,2.71,0l4.46-4.46c.75-.75.75-1.96,0-2.71,0,0-4.46-4.46-4.46-4.46ZM24.93,2.92l-3.41,3.41h-11.03l-3.41-3.41L2.61,7.38l4.46,4.46,3.41-3.41h11.03s3.41,3.41,3.41,3.41l4.46-4.46-4.46-4.46Z"/><circle class="d" cx="6.84" cy="7.38" r="1.44"/><circle class="d" cx="25.02" cy="7.38" r="1.44"/><path class="e" d="M7.48,13h-.04l.03.03s0-.02,0-.03Z"/><path class="e" d="M18.21,13.32v-1.48c0-4.74-4.46-8.62-8.85-8.85,2.29,2.16,4.43,5.33,4.43,8.85v1.48h-4.43l6.63,7.37.17-.16,6.48-7.2h-4.43Z"/><path class="g" d="M11.85,11.41h-2.5c-.76,0-1.44.45-1.75,1.14-.31.69-.18,1.5.33,2.06l6.64,7.38c.36.4.88.63,1.42.63s1.06-.23,1.42-.63l6.64-7.38c.51-.56.63-1.37.33-2.06-.31-.69-.99-1.14-1.75-1.14h-2.52c-.26-5.54-5.48-10.06-10.66-10.33-.8-.04-1.54.42-1.86,1.16-.32.74-.14,1.6.45,2.15,1.84,1.74,3.64,4.22,3.81,7.02ZM13.78,11.85v1.48h-4.43l6.64,7.38,6.64-7.38h-4.43v-1.48c0-4.74-4.46-8.62-8.85-8.85,2.29,2.16,4.43,5.33,4.43,8.85Z"/></svg>