<?xml version="1.0" encoding="UTF-8"?><svg id="b" xmlns="http://www.w3.org/2000/svg" viewBox="0 0 32 32"><defs><style>.c{fill:#d8dcdb;}.c,.d,.e{stroke-width:0px;}.d{fill:#ff0085;}.e{fill:#52bbd1;}</style></defs><polygon class="d" points="21.99 12.37 11.69 5.84 1.66 12.11 .92 24.1 11.46 30.47 22.47 24.58 21.99 12.37"/><path class="c" d="M23,11.78v-.11l-.08-.21s-.06-.09-.1-.13c-.04-.06-.08-.11-.12-.17l-.12-.1-.22-.11-10.23-6.44c-.44-.28-1-.28-1.45,0L.55,10.96l-.12.11-.12.1c-.05.05-.09.11-.12.17-.04.04-.07.08-.1.13l-.08.21v.11c-.01.12-.01.24,0,.36v12.15c0,.48.24.93.64,1.18l10.23,6.44h0c.06.04.13.07.2.08h.11c.23.07.48.07.71,0h.11c.07-.02.14-.04.2-.08h0l10.16-6.44c.4-.25.64-.7.64-1.18v-12.15c.01-.12.01-.24,0-.36ZM10,28.52l-8-4.95v-9.28l8,4.93v9.29ZM11.69,16.91l-7.79-4.81,7.79-4.8,7.79,4.8-7.79,4.81ZM21,23.57l-8,4.95v-9.29l8-4.93v9.28Z"/><path class="e" d="M19.99,27.93c-.38,0-.72-.23-.86-.57-.14-.35-.06-.75.2-1.01l3.23-3.23-4.59-4.79-6.02,6.02c-.18.17-.41.27-.66.27-.02,0-.05,0-.07,0-.27-.02-.52-.16-.68-.38L2.48,13.25c-.27-.37-.23-.89.1-1.22.18-.17.41-.26.65-.26.2,0,.4.06.57.2l7.4,5.77,6.11-6.4s.06-.06.09-.08l5.16-5.37-3.23-3.23c-.27-.27-.34-.67-.2-1.01s.48-.57.86-.57h10.01c.51,0,.93.42.93.93v10.01c0,.38-.23.72-.57.86-.12.05-.24.07-.36.07-.24,0-.48-.09-.66-.27l-3.13-3.13-4.62,4.97,4.62,4.97,3.13-3.13c.18-.18.42-.27.66-.27.12,0,.24.02.36.07.35.14.57.48.57.86v10.01c0,.51-.42.93-.93.93h-10.01Z"/><path class="c" d="M30,2v10.01l-3.82-3.82-5.86,6.31,5.86,6.31,3.82-3.82v10.01h-10.01l3.88-3.88-5.87-6.12h0s-.01,0-.01,0l-6.68,6.68L3.23,12.7l8.06,6.29,4.29-4.49h0s.61-.63.61-.63l1.8-1.88h0s5.87-6.11,5.87-6.11l-3.88-3.88h10.01M30,.14h-10.01c-.75,0-1.43.45-1.72,1.15-.29.7-.13,1.5.4,2.03l2.59,2.59-4.5,4.68s-.08.08-.12.12l-1.8,1.88-.6.63s-.05.05-.07.08l-3.06,3.21-6.73-5.26c-.34-.26-.74-.39-1.14-.39-.47,0-.94.18-1.3.53-.67.65-.75,1.69-.2,2.44l8.06,10.98c.32.44.82.71,1.36.75.05,0,.09,0,.14,0,.49,0,.97-.19,1.32-.54l5.35-5.35,3.3,3.44-2.59,2.59c-.53.53-.69,1.33-.4,2.03.29.7.97,1.15,1.72,1.15h10.01c1.03,0,1.86-.83,1.86-1.86v-10.01c0-.75-.45-1.43-1.15-1.72-.23-.1-.47-.14-.71-.14-.48,0-.96.19-1.32.54l-2.45,2.45-3.37-3.63,3.37-3.63,2.45,2.45c.36.36.83.54,1.32.54.24,0,.48-.05.71-.14.7-.29,1.15-.97,1.15-1.72V2c0-1.03-.83-1.86-1.86-1.86h0Z"/></svg>