<?xml version="1.0" encoding="UTF-8"?><svg id="b" xmlns="http://www.w3.org/2000/svg" viewBox="0 0 32 32"><defs><style>.e,.f,.g,.h,.i{stroke-width:0px;}.e,.i{fill:#d8dcdb;}.f,.h{fill:#ff0085;}.g{fill:#52bbd1;}.g,.h,.i{fill-rule:evenodd;}</style></defs><path class="g" d="M16.02,26.91c-.97,0-1.93-.33-2.69-.92L2.39,17.48c-1.07-.84-1.69-2.1-1.69-3.46,0-1.36.62-2.62,1.69-3.46L13.33,2.06c.77-.6,1.72-.92,2.69-.92s1.93.33,2.69.92l10.94,8.5c1.06.83,1.7,2.12,1.69,3.47,0,1.34-.64,2.64-1.7,3.46l-1.99,1.54-8.94,6.96c-.77.6-1.72.92-2.69.92h0ZM16.02,21.77l8.58-6.68,1.38-1.07-9.96-7.75-9.96,7.75,9.96,7.75Z"/><path class="e" d="M16.02,1.74c.82,0,1.64.27,2.32.8l10.94,8.51c.92.72,1.46,1.82,1.46,2.99,0,1.17-.54,2.27-1.47,2.99l-1.99,1.54-8.94,6.96c-.68.53-1.5.8-2.32.8s-1.64-.27-2.32-.8c0,0-8.96-6.96-8.96-6.96l-1.98-1.55c-.92-.72-1.46-1.82-1.46-2.99,0-1.17.54-2.27,1.46-2.99L13.69,2.53c.68-.53,1.5-.8,2.32-.8M16.02,22.53l8.94-6.96,1.99-1.54-10.94-8.51L5.08,14.03l1.98,1.54s8.96,6.96,8.96,6.96M16.02.54c-1.1,0-2.19.37-3.06,1.05L2.02,10.09C.8,11.04.1,12.47.1,14.02c0,1.55.7,2.98,1.92,3.93l1.98,1.55,8.96,6.96c.87.68,1.96,1.05,3.06,1.05s2.19-.37,3.06-1.05l8.94-6.96,1.99-1.54c1.23-.95,1.93-2.38,1.93-3.94,0-1.55-.7-2.99-1.92-3.94L19.08,1.59c-.87-.68-1.96-1.05-3.06-1.05h0ZM7.03,14.03l8.98-6.99,8.98,6.98-.77.6-8.21,6.39-8.22-6.39-.76-.59h0Z"/><path id="c" class="f" d="M16.23,23.44l9.73-7.57,2.17-1.68-11.89-9.25L4.33,14.19l2.15,1.68,9.74,7.57Z"/><path id="d" class="f" d="M16,26.41l-9.57-7.44-2.1,1.64,11.68,9.09,11.68-9.09-2.12-1.65-9.58,7.45ZM16.02,23.11l9.55-7.44,2.13-1.65-11.68-9.09L4.33,14.03l2.12,1.65s9.57,7.44,9.57,7.44Z"/><path class="i" d="M5.31,17.32s-.07.05-.1.07l-2.1,1.64c-.49.38-.77.96-.77,1.58s.28,1.2.77,1.58l11.68,9.09c.72.56,1.73.56,2.45,0l11.68-9.09c.49-.38.77-.96.77-1.58,0-.62-.28-1.2-.77-1.58l-2.12-1.65s-.06-.05-.09-.07l.08-.06,2.13-1.65c.49-.38.77-.96.77-1.58,0-.62-.28-1.2-.77-1.58L17.24,3.36c-.72-.56-1.73-.56-2.45,0L3.11,12.45c-.49.38-.77.96-.77,1.58,0,.62.28,1.2.77,1.58l2.12,1.65.09.07Z"/><polygon class="h" points="16 26.41 6.44 18.97 4.33 20.61 16.02 29.69 27.7 20.61 25.58 18.96 16 26.41"/><polygon class="h" points="16.02 23.11 25.57 15.67 27.7 14.03 16.02 4.94 4.33 14.03 6.45 15.67 16.02 23.11"/></svg>