<?xml version="1.0" encoding="UTF-8"?><svg id="b" xmlns="http://www.w3.org/2000/svg" viewBox="0 0 32 32"><defs><style>.c{fill:#ff0085;}.c,.d{stroke-width:0px;}.d{fill:#52bbd1;fill-rule:evenodd;}.e{fill:#d8dcdb;stroke:#d8dcdb;stroke-miterlimit:10;stroke-width:4px;}</style></defs><path class="e" d="M16.12,2.02c-.98,0-1.9.38-2.59,1.07L3.2,13.42c-1.43,1.43-1.43,3.76,0,5.19l10.33,10.33c.69.69,1.61,1.07,2.59,1.07s1.9-.38,2.59-1.07l10.33-10.33c1.43-1.43,1.43-3.76,0-5.19L18.72,3.09c-.69-.69-1.61-1.07-2.59-1.07h0Z"/><path class="c" d="M16.12,3.97c.47,0,.93.18,1.29.53l10.33,10.33c.71.71.71,1.87,0,2.58l-10.33,10.33c-.36.36-.82.53-1.29.53s-.93-.18-1.29-.53l-10.33-10.33c-.71-.71-.71-1.87,0-2.58L14.83,4.5c.36-.36.82-.53,1.29-.53M16.12,2.13c-.98,0-1.9.38-2.59,1.07L3.2,13.53c-1.43,1.43-1.43,3.76,0,5.19l10.33,10.33c.69.69,1.61,1.07,2.59,1.07s1.9-.38,2.59-1.07l10.33-10.33c1.43-1.43,1.43-3.76,0-5.19L18.72,3.2c-.69-.69-1.61-1.07-2.59-1.07h0Z"/><path class="d" d="M17.57,6.71c.8.8.8,2.1,0,2.9-.8.8-2.1.8-2.9,0-.8-.8-.8-2.1,0-2.9.8-.8,2.1-.8,2.9,0Z"/><path class="d" d="M13.31,10.58c.8.8.8,2.1,0,2.9-.8.8-2.1.8-2.9,0-.8-.8-.8-2.1,0-2.9.8-.8,2.1-.8,2.9,0Z"/><path class="d" d="M9.55,14.67c.8.8.8,2.1,0,2.9-.8.8-2.1.8-2.9,0-.8-.8-.8-2.1,0-2.9.8-.8,2.1-.8,2.9,0Z"/><path class="d" d="M21.59,10.69c.8.8.8,2.1,0,2.9-.8.8-2.1.8-2.9,0-.8-.8-.8-2.1,0-2.9.8-.8,2.1-.8,2.9,0Z"/><path class="d" d="M17.33,14.56c.8.8.8,2.1,0,2.9-.8.8-2.1.8-2.9,0-.8-.8-.8-2.1,0-2.9.8-.8,2.1-.8,2.9,0Z"/><path class="d" d="M13.56,18.65c.8.8.8,2.1,0,2.9-.8.8-2.1.8-2.9,0-.8-.8-.8-2.1,0-2.9.8-.8,2.1-.8,2.9,0Z"/><path class="d" d="M25.6,14.67c.8.8.8,2.1,0,2.9-.8.8-2.1.8-2.9,0-.8-.8-.8-2.1,0-2.9.8-.8,2.1-.8,2.9,0Z"/><path class="d" d="M21.34,18.54c.8.8.8,2.1,0,2.9-.8.8-2.1.8-2.9,0-.8-.8-.8-2.1,0-2.9.8-.8,2.1-.8,2.9,0Z"/><path class="d" d="M17.57,22.62c.8.8.8,2.1,0,2.9-.8.8-2.1.8-2.9,0-.8-.8-.8-2.1,0-2.9.8-.8,2.1-.8,2.9,0Z"/></svg>