<?xml version="1.0" encoding="UTF-8"?><svg id="b" xmlns="http://www.w3.org/2000/svg" viewBox="0 0 32 32"><defs><style>.c,.d{fill:#ff0085;}.c,.d,.e,.f{stroke-width:0px;}.d,.f{fill-rule:evenodd;}.e{fill:#52bbd1;}.f{fill:#d8dcdb;}</style></defs><ellipse class="e" cx="16.02" cy="25.79" rx="13.99" ry="4.05"/><path class="f" d="M16.02,19.75c-5.83,0-10.88,1.04-13.39,2.44C.81,23.2.05,24.57.05,25.79s.76,2.59,2.59,3.61c2.51,1.4,7.56,2.44,13.39,2.44s10.88-1.04,13.39-2.44c1.82-1.02,2.59-2.38,2.59-3.61s-.76-2.59-2.59-3.61c-2.51-1.4-7.56-2.44-13.39-2.44ZM16.02,21.75c7.72,0,13.99,1.81,13.99,4.05s-6.27,4.05-13.99,4.05-13.99-1.81-13.99-4.05,6.27-4.05,13.99-4.05Z"/><path class="d" d="M17.76,10.22c0-.5-.41-.9-.9-.9h-1.81c-.5,0-.9.4-.9.9v12.66c0,.5.41.9.9.9h1.81c.5,0,.9-.4.9-.9v-12.66Z"/><path class="f" d="M19.76,10.22c0-1.6-1.3-2.9-2.9-2.9h-1.81c-1.6,0-2.9,1.3-2.9,2.9v12.66c0,1.6,1.3,2.9,2.9,2.9h1.81c1.6,0,2.9-1.3,2.9-2.9v-12.66ZM17.76,10.22c0-.5-.41-.9-.9-.9h-1.81c-.5,0-.9.4-.9.9v12.66c0,.5.41.9.9.9h1.81c.5,0,.9-.4.9-.9v-12.66Z"/><circle class="c" cx="15.95" cy="9.42" r="7.43"/><path class="f" d="M15.95,0C10.75,0,6.53,4.22,6.53,9.42s4.22,9.42,9.42,9.42,9.42-4.22,9.42-9.42S21.16,0,15.95,0ZM15.95,2c4.1,0,7.43,3.33,7.43,7.43s-3.33,7.43-7.43,7.43-7.43-3.33-7.43-7.43S11.86,2,15.95,2Z"/></svg>